<?xml version="1.0" encoding="utf-8"?>
<!-- Generator: Adobe Illustrator 19.0.0, SVG Export Plug-In . SVG Version: 6.00 Build 0)  -->
<svg version="1.1" id="Layer_1" xmlns="http://www.w3.org/2000/svg" xmlns:xlink="http://www.w3.org/1999/xlink" x="0px" y="0px"
	 width="1533.1px" height="980px" viewBox="0 0 1533.1 980" enable-background="new 0 0 1533.1 980" xml:space="preserve">
<linearGradient id="XMLID_177_" gradientUnits="userSpaceOnUse" x1="766.5434" y1="921.8623" x2="766.5434" y2="171.8773">
	<stop  offset="0" style="stop-color:#C79B79"/>
	<stop  offset="0.4603" style="stop-color:#D6B69C"/>
	<stop  offset="1" style="stop-color:#C79B79"/>
</linearGradient>
<rect id="XMLID_170_" fill="url(#XMLID_177_)" width="1533.1" height="980"/>
<g id="XMLID_175_">
	<defs>
		<rect id="XMLID_174_" width="1533.1" height="980"/>
	</defs>
	<clipPath id="XMLID_178_">
		<use xlink:href="#XMLID_174_"  overflow="visible"/>
	</clipPath>
	<g id="XMLID_171_" opacity="0.3" clip-path="url(#XMLID_178_)">
		<g id="XMLID_16_">
			<g id="XMLID_1_">
				<path id="XMLID_23_" fill="#CBA282" d="M675.2,680c-31.8-2.2-63.3-0.2-93.9,3.3c-32.4,3.7-61.8,10.1-89.3,17.5
					c-54.4,14.5-99.9,34.4-136.1,55.4c-9.1,5.3-19.6,10.8-24.1,17c-4.5,6-1,12.4,7.9,17.6c8.7,5,20.9,8.9,33.6,12.4
					c13.3,3.7,27.4,7.2,41.3,10.6c29.3,7.1,59.6,13.8,92.8,18c33.6,4.3,69.1,6.4,104.2,8c70.3,3.2,141.7,3.3,211.9-0.3
					c67.5-3.4,134.9-10.1,197.8-20.1c14-2.2,28-4.5,41.5-7.1c6.3-1.2,12.6-2.2,19.1-3.3c3.9-0.6,7.1-1,10.7-2c3.5-1,6.9-2,10.3-3
					c23.5-7.1,44.1-15.8,58.1-25.9c4.4-3.2,8.1-6.6,8.2-10.2c0.2-3.8-4.1-7-10.4-9.9c-10.3-4.7-23.7-8.5-35.9-12.4
					c-26.1-8.3-52.7-16.4-81.5-23.4c-28.2-6.8-55.3-14.1-84.7-20.3c-29.3-6.1-60.5-12-92.6-15.7c-33-3.8-67.2-5.9-101.5-7.6
					c-33.9-1.6-68.6-1.9-102.6-0.5c-16.6,0.7-32.6,1.8-48.6,3.6c-2.3,0.3-1.4,1.5,1,1.4c33.1-2.3,66.6-4.1,100.4-3.8
					c33,0.3,66.3,1.9,97.8,5.7c61.8,7.3,121.1,17.2,175.7,30.3c13.3,3.2,27.1,6.4,39.2,10.2c12.1,3.8,24.2,7.7,36.1,11.7
					c24.3,8.2,48,16.6,71.6,25.1c3.6,1.3,8.9,2.9,9.5,4.9c0.7,2.5-4,5.3-7.2,7.4c-6.6,4.4-14.4,8.5-23.4,12.3
					c-9,3.8-18.9,7.2-29.4,10.3c-3.1,0.9-7,1.7-9.7,2.8c-2.2,0.8-4.1,1.9-6.3,2.7c-5.1,2-10.7,3.5-16.8,5
					c-52.1,12.9-114.5,19.8-175,24.6c-66.8,5.3-135.4,7.2-203.6,5.7c-33.8-0.7-67.5-2.7-100.6-5.4c-33.1-2.7-64.9-6.6-94.5-13
					c-28.5-6.1-54.1-13.7-79.6-21.4c-18.8-5.7-47.3-13.3-38.6-23.5c4.6-5.4,14.9-10.4,23.1-15.1c8.4-4.8,17.2-9.4,26.6-13.9
					c19.4-9.3,40.8-17.9,63.6-26c22.7-8.1,46-16,71.5-22.8c26-6.9,53.7-13,85-15.6c15.6-1.3,31.6-1.7,47.5-1.2
					C675.7,680.5,675.9,680,675.2,680L675.2,680z"/>
			</g>
			<g id="XMLID_2_">
				<path id="XMLID_30_" fill="#CBA282" d="M753.9,690.4c-56.1-2.5-112.4,2-163.1,11.2c-25.1,4.5-48.8,10.1-71.3,16.3
					c-22.4,6.2-43.8,12.8-62.6,20.5c-18.5,7.5-38.1,15.4-52,24.3c-14.6,9.3-20.7,20.7-1.2,29.6c8.5,3.9,20.5,6.6,31.7,9.3
					c11.9,2.8,24,5.5,36.4,8.1c25.1,5.1,51.3,9.6,78.3,13.1c26.2,3.5,53.5,6.3,81,7.7c29,1.5,59,1.6,88.2,0.4
					c15.5-0.6,30.5-2.3,45.9-3c14.6-0.7,29.4-1,44-1.7c28.9-1.4,57.6-3.3,85.6-6.3c14.1-1.5,28-3.3,41.7-5.2
					c11.9-1.6,23.1-3.9,35-5.5c5.6-0.7,11.4-1.3,16.7-2.3c5.7-1.1,11.3-2.3,16.7-3.6c10.8-2.5,21.3-5.2,30.7-8.5
					c17.9-6.1,33.7-13.3,46-21.1c3.1-2,5.9-4,8.4-6.1c1.4-1.2,3.1-2.4,4.1-3.6c1.7-2.1-0.1-3.7-3.1-5.4c-7.5-4.3-16.3-8.4-26.1-11.9
					c-9.9-3.6-23.4-5.1-34.6-8c-11-2.8-22.3-5.5-33.4-8.3c-23.1-5.8-46.4-11.6-70.3-16.9c-46.6-10.5-96.9-19.7-151-22.8
					c-13.1-0.7-25.6-1-38.8-0.5c-1.5,0.1-1.5,0.8,0,0.9c26.3,1.2,52.4,2.6,77.7,5.6c24.8,3,48.5,7,71.3,11.7
					c23.5,4.8,46.2,10.1,68.4,15.7c21.2,5.3,42.5,10.6,62.2,16.7c5.6,1.7,10.1,3.5,14.6,5.6c4.4,2.1,8.2,4.3,12.7,6.3
					c9.1,4.1,18.8,7.6,26.5,12.2c-0.4-1.3-0.9-2.6-1.3-3.9c-6.4,5.8-15.3,11.4-25.3,16.4c-10.1,5.1-22.3,9.2-34,13.7
					c-12.1,4.6-26.5,8.1-39.4,12.3c-6.7,2.2-14.2,3.7-22,5.2c-9,1.7-18.3,3.4-27.8,4.8c-39.2,5.5-81.3,8.1-122.8,9.8
					c-10.1,0.4-20.3,0.8-30.4,1.1c-10.7,0.3-21.8-0.2-32.4-0.5c-21.7-0.6-43.4-0.2-65-1.2c-39.1-1.9-77.3-4.7-114.6-9.7
					c-37-5-72.3-11.8-105.5-19.7c-12.3-2.9-29.5-6.4-31.8-12.2c-2.5-6.4,9-13,18.6-17.9c11.3-5.8,24.3-11.2,37.3-16.5
					c13.2-5.4,26.4-10.8,40.2-16c55.8-21.1,130-36.8,209.6-39.4c10-0.3,20.1-0.4,30.2-0.3C754.4,690.7,754.4,690.4,753.9,690.4
					L753.9,690.4z"/>
			</g>
			<g id="XMLID_3_">
				<path id="XMLID_37_" fill="#CBA282" d="M765.2,702.4c-20.1-0.4-40.3-0.3-60.3,0.7c-20.2,1-40.1,2.7-59.9,4.5
					c-19.8,1.8-40,4.5-57.7,8.3c-18.4,3.9-35.8,8.4-52.3,13.4c-32,9.7-59.9,21.5-81.3,34.7c-7,4.4-12.5,9.2-9.8,14.4
					c2.2,4.3,10.3,7.5,19.5,10c8.6,2.3,18.5,3.9,28,5.5c10.8,1.8,21.7,3.5,32.8,5.1c43.4,6,88.4,8.8,134.4,9.9
					c22.8,0.5,45.3,0.2,67.9-0.8c22.8-1,45.3-2.7,68-4.2c22.4-1.5,44.6-3.5,66.4-6c21.3-2.4,42.7-4.9,63.3-8.1
					c4.5-0.7,8.9-1.3,13.6-1.7c5.6-0.5,10.8-1.4,16.1-2.3c4.6-0.8,9.1-1.7,13.6-2.6c5.2-1,10.4-1.8,14.9-3.3
					c17.4-5.5,32.5-13.5,32.2-22.5c-0.3-8.5-15-15.6-31.8-20.7c-9.5-2.9-22.1-4.2-32.3-6.7c-10.1-2.5-20.3-5-30.6-7.4
					c-39.9-9.4-84.2-17.7-131.5-19.6c-12-0.5-24.1-0.5-36.2-0.2c-2,0.1-2,1.2,0,1.2c46.5-1.3,94,4.4,133.3,13.7
					c19.4,4.6,37.5,9.8,54.9,15.4c8.7,2.8,15.6,5.9,22.9,9.2c5.8,2.6,13.6,4.4,19.3,7.1c5.7,2.6,8.9,5.3,7.2,8.7
					c-1.9,3.8-7.9,7-13.7,10.1c-2.4,1.3-5.2,2.5-8.1,3.6c-3.5,1.4-6.7,2.8-10,4.2c-6.5,2.8-14.7,4.7-22.6,6.8
					c-4,1.1-7.4,2.3-11.9,3.2c-4.3,0.8-8.7,1.5-13.1,2.3c-9.9,1.6-20,3.1-30.3,4.5c-20.2,2.7-41.3,4.6-62.2,6.3
					c-21.1,1.7-42,2.8-63.5,3.1c-21.4,0.3-42.7-0.1-64.1-0.5c-42.2-0.8-82.8-3.5-123.5-7.8c-19.6-2.1-39-4.6-57.6-7.8
					c-9.5-1.6-19.2-3.2-28.1-5.3c-5.7-1.3-11.5-2.8-11-5.3c0.7-3.4,8-6.8,12.8-9.6c4.9-2.8,10.1-5.6,15.7-8.3
					c11.6-5.6,24.5-10.8,38.4-15.6c13.7-4.7,28.4-9,43.9-12.9c8-2,16.2-3.8,24.6-5.6c8.1-1.7,15.7-3.7,23.9-5.3
					c16.7-3.4,33.4-6.7,51.5-8.9c18-2.2,36.6-3.9,55.3-5.1c9.5-0.6,19.2-1,28.8-1.3C765.8,702.7,765.8,702.4,765.2,702.4
					L765.2,702.4z"/>
			</g>
			<g id="XMLID_4_">
				<path id="XMLID_45_" fill="#CBA282" d="M793.2,717.2c-35,0.5-69.8,2.7-103.5,6.2c-16.8,1.7-33.5,3.7-49.8,6
					c-17.3,2.4-33.1,5.8-48.5,9.6c-29.3,7.3-58.4,16-81.2,26.1c-7,3.1-11.7,6.7-9.3,10.9c1.9,3.3,8.6,5.9,16,7.7
					c14.7,3.6,33,4.5,49.9,5.4c17.8,0.9,35.7,1.5,53.6,1.7c18.2,0.2,36.2,1.1,54.4,1.3c35.5,0.3,71-0.9,105.8-3.5
					c35.2-2.6,70.3-6.6,103.6-11.7c16.7-2.5,33.1-5.4,48.9-8.7c3.6-0.7,7-1.6,10.7-2.3c3.8-0.7,8.1-0.9,12-1.5
					c9.6-1.5,16.9-3.9,19.4-7.9c4.7-7.5-12-13.6-28-16.7c-8.9-1.7-18.4-3-27.4-4.7c-9.2-1.8-18.6-3.4-28-5
					c-18.1-3.1-36.7-5.8-55.4-8.3c-18.4-2.5-37.9-4.5-57.5-4.5c-9.2,0-17.9,0.5-26.6,1.6c-1,0.1-0.6,0.7,0.4,0.6
					c38.2-3,75.5,3,108.9,9.5c16.7,3.2,33.1,6.7,49,10.5c13.2,3.1,27,7.1,35.7,12c3.5,2,3.1,3.1,0.3,5.3c-3.1,2.4-7.4,4.5-13.4,5.9
					c-14,3.4-28.4,6.5-43.3,9.4c-29.9,5.7-61,9.9-93.6,12.7c-32.5,2.8-65.7,4.3-99.1,4.5c-16.3,0.1-32.7-0.1-48.9-0.6
					c-17.1-0.5-33-1.9-49.4-3.8c-15.5-1.8-30.6-4-45.5-6.4c-7.2-1.1-14.5-1.7-20.5-3c-1.3-0.3-2.7-0.6-3.9-0.9
					c1.3,0.4-2.7-0.9-1.6-0.6c-0.5-0.2-1-0.4-0.4-0.7c3.7-2.2,9.1-4.1,14-5.9c5.7-2.1,11.5-4.2,17.5-6.3
					c11.6-3.9,23.7-7.6,36.4-10.9c13.4-3.6,27.7-6.6,41.4-9.9c13.7-3.4,27.4-6.7,41.9-9.5c29.1-5.5,59.7-9.5,91.5-12
					c7.8-0.6,15.6-1.1,23.5-1.6C793.5,717.4,793.5,717.2,793.2,717.2L793.2,717.2z"/>
			</g>
			<g id="XMLID_5_">
				<path id="XMLID_51_" fill="#CBA282" d="M808.4,739.5c-22.6-2.1-46-1.4-68.6,0.5c-20.9,1.8-41.4,4.1-61.4,7.1
					c-4,0.6-8.2,1.6-12.4,1.9c-2.5,0.2-5.5,0.1-8.1,0.5c-3,0.5-5.7,1.4-8.2,2.2c-8,2.5-15.1,5.5-20.8,8.9
					c-6.2,3.6-11.2,8.1-6.5,12.4c5,4.4,19.4,6.2,30.9,7c11.3,0.8,22.7,0,34.1,0.4c10.9,0.4,22.4,0.9,33.3,0.1
					c11.5-0.8,23-1.4,34.5-2.3c11.4-0.8,22.6-1.9,33.9-2.9c11.5-1,23.1-2.5,34.8-3.1c10-0.5,19.9-1.2,29.8-1.7
					c10.2-0.5,21.1-1.7,29.8-3.9c8.7-2.2,19.8-5.8,22.8-9.8c4.1-5.5-11.5-9.6-22.3-12.1c-10.4-2.4-22-3.8-34-4.6
					c-23.3-1.6-46.4-2.3-69.9-0.9c-1.1,0.1-0.9,0.8,0.3,0.8c19-0.3,37.1,0.9,54.6,3.7c7.8,1.3,15.1,3.3,21.7,5.3
					c7.2,2.1,14.8,4.1,21.8,6.4c2.9,0.9,4.2,2.2,3.3-0.1c-0.8-2.1-0.7-1.3-2.8-0.4c-2.4,1.1-5.2,2-8.1,2.9c-7,2-14.3,3.7-21.3,5.7
					c-15.1,4.1-33.6,6.4-51.4,8.2c-19.5,2-39,3.4-59.1,4.1c-10.1,0.3-19.9-0.2-30-0.2c-9.5,0-19.2,0-28.4-1.1
					c-4.6-0.5-8.3-1.5-12.5-2.4c-4.4-0.9-9.2-1.7-13.8-2.5c-1.9-0.3-3.9-0.6-5.8-0.9c-0.4-0.1-2.9-0.5-2.9-0.5
					c0.2-0.1,1.3,1.1,0.8,0.4c0.6,0.9,0.5,0.5,1,0c0.6-0.6,1.2-1.1,2.1-1.7c4-2.6,9-4.9,14.9-7c3.2-1.1,7.6-2.1,9.8-3.5
					c0.9-0.6,1.8-1.8,2.2-2.1c0.4-0.2,3-1,4.3-1.4c15.4-4.8,35.3-8.2,54.3-10.5c23.6-2.8,48.5-4.4,73.1-2.7
					C808.7,739.9,809,739.5,808.4,739.5L808.4,739.5z"/>
			</g>
			<g id="XMLID_6_">
				<path id="XMLID_59_" fill="#CBA282" d="M806.6,752.2c-8.6-1.4-17.5-2.3-26.6-3.1c-9.5-0.8-19.2-1.6-28.9-1.6
					c-10.8,0.1-21.5,1.9-30.9,3.8c-10.2,2.1-22.3,5.8-16,10.7c2.9,2.3,8.1,3.4,14.8,3.5c4.4,0.1,8.5-0.5,13-0.5c10,0,20,0.2,30,0
					c9.8-0.2,19.7-0.8,29-2c9.6-1.2,18.3-3.1,27.7-4.4c2.9-0.4,3.9-1.4,2.7-2.5c-3.1-2.6-10.5-4.6-17.3-5.8
					c-5.9-1-14.2-2.2-20.6-1.5c-1,0.1-1.6,0.7-0.7,1c4.8,1.6,11.5,2.2,16.6,3.7c5.4,1.6,10.1,3.5,15.8,4.9c-0.3-0.9-0.6-1.8-0.9-2.7
					c-11.7,3.7-30.9,5.1-45.7,5.7c-7.7,0.3-15.2,0.3-22.9-0.1c-7.4-0.4-13.7-1.2-18.5-3.4c1,0.7,2,1.3,3,2c-0.3-0.2-0.5-0.5-0.7-0.8
					c-0.1,0.6-0.1,0.6,0.1-0.2c-0.6,0.9-1.2,1.7-1.8,2.6c1.6-1.2,11.5-2.8,15.8-3.5c6.5-1.1,12.7-2.1,18.9-3.4
					c13.9-2.7,28.2-3.2,43.5-2.3C806.8,752.6,807.4,752.3,806.6,752.2L806.6,752.2z"/>
			</g>
			<g id="XMLID_7_">
				<path id="XMLID_65_" fill="#CBA282" d="M727.6,666.4c-57.5,0.5-115.4,1.4-171.9,5.8c-28.3,2.2-56.3,5.3-82.8,9.8
					c-25.9,4.3-49.7,10.4-71.4,17.3c-43.3,13.8-74.1,31.7-102.1,50c-6.2,4.1-12.6,8.1-19.7,12c-6.7,3.7-14.6,7-22.8,10.3
					c-20.2,8.2-49.6,9.1-77.2,10.5c-74.9,3.8-150.5,4.9-225.4,8.8c-1.1,0.1-0.9,0.8,0.3,0.8c67.5-0.5,134.9-2.9,202.4-4.3
					c31-0.7,63.5,0.7,92.7-4.1c11.6-1.9,23.3-4.5,32.3-7.9c9-3.4,16.9-7.3,24.1-11.2c14.6-8.1,26.1-16.9,40-25.1
					c15-8.8,31.5-17.3,50.5-25c19-7.7,39.7-14.8,63.2-20.4c23.7-5.7,48.8-10.4,75.4-13.9c61.9-8.1,127.5-10.7,192.4-12.9
					C728.4,666.8,728.4,666.4,727.6,666.4L727.6,666.4z"/>
			</g>
			<g id="XMLID_9_">
				<path id="XMLID_72_" fill="#CBA282" d="M-6.8,769.5c52.4,3.4,108.8,5,160.9,0.4c25-2.2,49-6,70.2-11.5
					c10.9-2.9,21.6-5.9,31.2-9.4c10.5-3.9,19.3-8.2,28.1-12.6c17.9-8.9,34.3-18.2,54.4-26.5c18.3-7.5,38.5-14.5,60-20.7
					c42.9-12.4,92.8-22,144-28.3c114.3-14.1,240.3-9.5,350.3,7.6c58.3,9.1,111.1,21.5,162.8,35c25.9,6.8,51.9,13.6,80.2,18.9
					c29.1,5.4,59.3,8.7,91.3,10.4c66.7,3.5,135,2.5,202.1,1.7c69.8-0.8,139.5-2.8,209-5c16.3-0.5,32.5-1.1,48.7-2
					c1.3-0.1,0.9-0.8-0.3-0.8c-35.1,0.3-70.2,1.6-105.2,2.4c-34.5,0.8-69.1,1.5-103.7,2c-68.5,0.9-137.3,0.8-205.5-2.1
					c-32.5-1.4-64.4-4.1-95.3-8.2c-29.8-4-57.3-10.3-84-16.6c-26.2-6.2-52-12.7-79-18.3c-26.9-5.6-54.7-10.7-83.1-15.1
					c-56.5-8.9-116.4-15.7-177-19.1c-56.7-3.1-114.1-4-170.7-0.3c-53.2,3.5-107.1,9.6-153.8,20c-46.9,10.5-87.5,24.1-118,41.2
					c-16.9,9.5-30.5,19.8-50,28.6c-18.5,8.3-40.6,14.5-67.5,18.3c-24.9,3.5-50.4,5.1-76.5,6.7c-27.4,1.7-55.4,2.3-83.1,2.6
					c-13.5,0.1-26.9,0.3-40.4,0.5C-7.1,769.2-7.3,769.5-6.8,769.5L-6.8,769.5z"/>
			</g>
			<g id="XMLID_11_">
				<path id="XMLID_79_" fill="#CBA282" d="M720.6,667.4c70.9-2.4,141.9,4.8,205.3,16.5c32.3,6,62.7,13.2,91.7,21.2
					c14.3,4,28.3,8.2,42.1,12.4c14,4.3,27.2,9,40.9,13.4c27.1,8.8,53.5,18,81.2,26.5c14.3,4.4,29.4,8.5,47.4,10.4
					c17.3,1.8,35.7,1.7,53.5,1.7c39.3-0.1,78.4-1,117.6-2.1c38.8-1.1,77.6-2.2,116.3-3.6c76.9-2.6,153.5-6.3,229.8-10.9
					c9.7-0.6,19.3-1.2,28.9-1.8c0.8,0,0.6-0.6-0.2-0.5c-76.9,3.7-154.1,6.3-231.4,8c-38.7,0.8-77.5,1.6-116.3,1.6
					c-38.8,0-77.6-0.6-116.4-0.6c-18.7,0-37.6,0.2-56.2-0.4c-16.5-0.5-31.3-2.6-45-6.1c-14.4-3.7-27.6-8.1-41.1-12.2
					c-13.9-4.2-28.1-8.3-42.2-12.4c-28.4-8.3-57.6-16.3-87.5-23.9c-29.5-7.5-60.2-14.5-92-20.4c-61.9-11.6-130.3-19.2-199.9-18
					c-8.8,0.2-17.6,0.5-26.4,0.9C720.1,667.2,720.1,667.4,720.6,667.4L720.6,667.4z"/>
			</g>
			<g id="XMLID_18_">
				<path id="XMLID_85_" fill="#CBA282" d="M13.5,756.8c52.2,3.6,107.3-0.9,155.3-8.9c12.4-2.1,25.1-4,36.4-6.8
					c11.3-2.8,22-5.9,32.2-9.2c21.3-7,37.9-15.7,54.1-24.4c16.1-8.7,32.9-17.3,53.2-24.7c21.7-7.9,47.7-12.9,74.8-17.6
					c59.9-10.5,125.3-17.5,190.5-21.4c64.4-3.9,130.2-5.2,195-2.2c60.8,2.8,122.1,10.6,175.2,22c52.1,11.2,95.7,27.1,147.5,38.4
					c52.5,11.5,112.3,15.1,172.1,16c61.8,0.9,124.1-0.7,185.9-1.3c69.1-0.7,139.3-1.2,207.9-4.9c16.7-0.9,33.5-1.9,50.2-2.8
					c3.8-0.2,2.7-2.4-0.9-2.4c-34.9-0.4-69.6-0.9-104.5-0.5c-34.3,0.4-68.6,0.5-102.9,0.9c-63.8,0.7-127.8,1.5-191.6,1.7
					c-59.6,0.2-121-0.7-176.9-9.4c-54.7-8.5-99.1-23.7-149-35.2c-51.7-12-110-19.5-169.7-23.2c-61.8-3.9-124.6-4.6-186.9-2.2
					c-65.5,2.5-130.6,7.8-194.1,14.3c-30.5,3.1-60.5,5.3-89.1,10.7c-25.7,4.9-47.4,12.1-66,20.4c-35.9,16-63.6,34.7-106.8,48.3
					c-21.6,6.8-44.5,12.9-70.8,16.8c-25.6,3.8-52.9,6.2-80.4,7c-13.4,0.4-27,0.5-40.4,0.4C12.9,756.3,12.6,756.8,13.5,756.8
					L13.5,756.8z"/>
			</g>
			<g id="XMLID_25_">
				<path id="XMLID_91_" fill="#CBA282" d="M0.3,808.6c68.8-1.7,137.6-3.6,206.5-5.2c32.6-0.8,65.8-1.8,97.6,1.7
					c24.9,2.8,48.2,7.9,68.4,14c42.1,12.8,81.9,26.7,133.7,33.6c15,2,30.3,3.5,46.1,4.1c15.2,0.6,30.6,0.4,45.8,0.6
					c32.2,0.5,64.4,0,96.6-0.3c67.6-0.7,134.9-0.4,202.4-2.7c60.1-2.1,119.2-6.7,176.3-14.2c56.4-7.4,105.9-18.9,149.6-34.3
					c21-7.4,42.2-14.9,70-18.3c15-1.8,30.8-3.5,46.6-4c15.4-0.5,31-0.7,46.5-0.6c68.7,0.4,137.3,0.8,206-0.1
					c69.3-0.9,138.4-2.9,207.3-6c16-0.7,31.7-1.6,47.6-2.8c2.1-0.2,1.7-1.5-0.5-1.4c-34.5,0.7-68.8,2.6-103.3,3.7
					c-33.9,1.1-67.9,2-101.8,2.6c-68.4,1.3-137.6,1.9-206,0.6c-33-0.7-66-2.4-99-2.8c-15.4-0.2-30.4-0.5-45.4,0.9
					c-14.7,1.4-28.8,3.9-41.4,7.1c-24,6-43.9,14.1-65.7,21.1c-22.4,7.3-46.8,13.3-72.3,18.9c-51.6,11.2-106.8,18.4-165,22.8
					c-67,5-135.1,6.1-203.3,6.2c-33.5,0-66.9-0.7-100.3-1.4c-15.5-0.3-31-0.7-46.4-1.4c-15.6-0.7-30.5-2.3-45.6-3.9
					c-15.3-1.6-30.6-2.9-45.4-5.1c-12.5-1.9-24.4-4.3-35.8-7c-22.6-5.2-42.8-11.7-64.9-17.3c-21.1-5.3-43.2-10.5-66.6-14.3
					c-26.9-4.3-55.2-5.6-84.3-5.1c-33.4,0.6-66.7,2.5-99.9,3.8c-34.4,1.4-68.8,2.7-103.2,4.1c-16.9,0.7-33.8,1.3-50.7,2
					C-0.1,808.3-0.1,808.6,0.3,808.6L0.3,808.6z"/>
			</g>
			<g id="XMLID_32_">
				<path id="XMLID_97_" fill="#CBA282" d="M-12.6,825.8c118.4-3.9,249.2-6.8,354.1,18.2c26.8,6.4,52.4,13.4,81.3,18.4
					c27.5,4.7,57.2,7.4,87.1,8.8c62.3,3,124.6,2.5,187.3,2.1c70.3-0.4,140.6-1.9,210.7-4.3c65.5-2.3,132.4-4.2,196.6-9.8
					c30.4-2.6,60.6-6.2,88.8-11.2c29-5.2,55.8-12,82.8-18.4c26.4-6.3,54.1-11.9,83.6-15.7c29-3.8,59.1-6.1,89.5-7.5
					c30.9-1.4,61.8-1.5,92.8-2c32.6-0.5,64.9-0.7,97.5-0.6c69.1,0.4,138.3,2.4,207.3-0.3c16.2-0.6,32.1-1.6,47.9-3
					c1.4-0.1,1.1-1-0.3-1c-69.1,3.2-137.3,2.9-206.6,1.1c-65.4-1.7-129.9-6.1-195.6-4.9c-61.3,1.1-121.9,5.8-178.2,15.1
					c-58.6,9.8-103.8,28-162.8,37.7c-29.6,4.9-61.5,7.7-93.1,9.9c-33.5,2.4-67.5,4.2-101.4,5.7c-69.9,3-140.1,5-210.4,6
					c-65,0.9-131.1,1.4-195.5-2.5c-61.2-3.8-118.7-13.1-170.2-25.9c-26.2-6.5-52.3-12.7-81.7-17.1c-27.5-4.1-57.3-6.7-86.7-7.4
					c-15-0.4-30-0.7-45-0.7c-15.5,0-30.3,0.5-45.7,1.1c-30,1.1-59.7,2.6-89.4,4.5c-15,1-29.9,2-44.8,3
					C-13.6,825.3-13.4,825.8-12.6,825.8L-12.6,825.8z"/>
			</g>
			<g id="XMLID_39_">
				<path id="XMLID_103_" fill="#CBA282" d="M842,887.4c-35.2-1.1-70.4-1.7-105.6-2.5c-34.8-0.7-69.6-1.7-104.4-2.6
					c-63.6-1.6-128.2-2.9-189.9-9.4c-31-3.3-60.1-8.2-88.6-13.8c-29.3-5.7-58.5-11.5-89.8-15.6c-61-7.8-126.9-10.1-191-8.7
					c-38.4,0.8-77.2,2.5-114.4,6.2c-37.1,3.7-73.6,8.2-110,12.7c-2.1,0.3-1.2,1.4,0.9,1.3c33.6-2.1,67.3-3.9,101.2-5.4
					c33.5-1.5,67-3.3,100.7-4.4c63.6-1.9,128.4-0.8,189.9,6c62.7,7,116.4,21.8,178.5,29.2c61.5,7.3,127.5,9.1,191.6,8.8
					c37.7-0.2,75.3-0.7,112.9-0.9c39.4-0.1,78.8-0.2,118.1-0.7C842.5,887.7,842.5,887.4,842,887.4L842,887.4z"/>
			</g>
			<g id="XMLID_40_">
				<path id="XMLID_21_" fill="#CBA282" d="M-94,867c9.7-0.5,19.5-0.8,29.2-1.5c9.9-0.7,19.8-1.4,29.7-2.1
					c20.5-1.4,41.2-2.6,61.9-3.5c40.2-1.8,80.5-2.4,120.9-1.1c34.6,1.1,68.8,3.8,101.7,7.9c32.1,4,63,8.8,91.6,15.7
					c13.9,3.3,27,7.1,39.2,11.3c11.4,3.9,24.3,8.3,30.1,13.8c5.3,5,2.8,10.2-4.3,14.9c-8,5.3-20.5,8.9-34.6,11.7
					c-15.6,3-32.9,4.7-49.8,6.4c-18.9,1.9-37.9,3.5-57,5c-38.5,2.9-77.4,5-116.6,6.2c-78.7,2.4-157.9,1.9-236.7,0.3
					c-9.6-0.2-19.3-0.4-28.9-0.7c-2.2-0.1-2.6,1.2-0.5,1.4C-78,956.8-37.5,960,4,961.4c41,1.3,82.4,1.8,123.5,0.8
					c41.9-0.9,83.7-2.8,125.1-5.6c20.3-1.4,40.4-3,60.4-4.8c18.7-1.7,37.6-3.4,55.5-6.1c35.2-5.3,66.9-15.1,71.4-30.2
					c4.2-14.3-27.4-25.6-54.6-33.6c-28.9-8.6-61.1-15.2-95.5-20.1c-33.6-4.8-69.3-7.1-105-8.1c-83.6-2.2-167.6,2.5-249.1,9.4
					c-10.2,0.9-20,2.2-29.9,3.4C-94.9,866.6-94.8,867.1-94,867L-94,867z"/>
			</g>
			<g id="XMLID_53_">
				<path id="XMLID_20_" fill="#CBA282" d="M-66.1,876.4c33.4-0.4,66.7-1.6,100-2.5c17-0.5,34-0.8,51.1-0.8c8.2,0,16.3,0.1,24.5,0.2
					c7.7,0.1,14.9,0.9,22.5,1.2c51.7,2.2,107.4,6.6,148.4,19.6c9.9,3.1,18.1,6.4,24,10.8c4.6,3.4,6.9,7.1,3.5,10.3
					c0.8-0.7-1.3,0.9-1.2,0.8c-2.2,1.4,0.5-0.1-1.1,0.6c-1.7,0.8-3.3,1.3-5.6,1.8c-5.1,1.2-10.8,1.7-16.8,2.2
					c-14.9,1.1-30.3,1.7-45.4,2.3c-33.6,1.5-67,3.3-100.6,4.6c-33.6,1.3-67.2,2.1-100.9,2.4c-75.5,0.6-150.8-0.9-226.1-3
					c-1.4,0-1.8,0.9-0.3,1c69.6,4.4,140.3,6.3,210.8,7c35.9,0.3,71.8,0.4,107.7,0.2c35-0.2,70.3-0.4,105.1-1.8
					c17.6-0.7,35.3-1.5,52.7-2.6c13.8-0.9,28.4-2.6,38.1-6.7c21-8.7,11.6-21.3-5.4-29.8c-17.3-8.6-43.3-15-69.3-19.4
					c-26.9-4.5-56.7-7.5-86.2-8.1c-8.6-0.2-17.1-0.3-25.7-0.2c-3.6,0-7.4,0-11,0.1c-5,0.2-9.7,0.8-14.8,0.9
					c-19.4,0.5-38.5,1.6-57.8,2.5c-40,1.8-79.8,4.3-120,5.6C-66.9,875.9-66.9,876.4-66.1,876.4L-66.1,876.4z"/>
			</g>
			<g id="XMLID_55_">
				<path id="XMLID_19_" fill="#CBA282" d="M-54.9,894.2c35.1,0.4,70.3-1.4,105.3-0.4c14.7,0.4,30,1.3,44.2,2.7
					c13.7,1.4,27.9,2.8,41,4.9c6,1,11.7,2.2,17.2,3.5c0.7,0.2,6.6,2.1,7.1,2c-3.6,0.4-0.8-3.2-0.6-3c0.9-0.2,0.7-0.1-0.8,0.2
					c-0.9,0.2-1.8,0.4-2.7,0.6c-1,0.2-6.7,0.7-9.3,1c-4.2,0.4-8.3,0.9-12.5,1.3c-9,0.9-18.1,1.7-27.2,2.5
					c-33.9,3-68.5,5.2-103.2,6.2c-39.2,1.1-78.9,1.2-118-0.1c-2.5-0.1-3.1,1.5-0.6,1.7c37.6,3.3,75.7,5.2,114.3,5.5
					c39.2,0.3,78.2-1,116.7-3.7c9.6-0.7,19-1.5,28.3-2.5c8.8-0.9,18.4-1.6,26.5-3.3c7.9-1.6,14.7-4.6,14.3-8.1
					c-0.4-4.2-9-6.5-17.3-8.6c-13.7-3.5-29.5-6-45.7-7.1c-16.6-1.2-33.8-0.9-50.5-0.1c-18.9,0.9-38,1.6-57,2.2
					c-23.2,0.8-46.6,1.1-69.7,2.3C-55.6,893.8-55.6,894.2-54.9,894.2L-54.9,894.2z"/>
			</g>
			<g id="XMLID_67_">
				<path id="XMLID_24_" fill="#CBA282" d="M777.2,884.9c66.9,2.3,134,4.4,201.2,4.4c65.9,0,131.6-2.5,194.4-10.4
					c30-3.8,59-8.7,87.1-14.2c27-5.3,52.9-11.5,79.1-17.3c52.1-11.7,107.5-23.2,168.1-26.9c40-2.5,80.9-2.6,121.1-4.1
					c41-1.6,82-3.1,122.8-5c2.2-0.1,2.3-1.3,0-1.3c-37.2-0.1-74.3,0.1-111.5,0.3c-36.1,0.2-72.5,0.4-108.4,1.8
					c-32.2,1.3-63.7,3.9-94.1,8.1c-28.5,4-55.8,9-82.3,14.6c-26.6,5.6-52.8,11.5-79.5,17c-26.6,5.5-53.1,11.1-81.3,15.3
					c-30.7,4.6-62.6,8-95,10.5c-32.4,2.5-64.9,4.6-97.8,5.7c-74.5,2.6-149.2,1.9-223.9,0.9C776.3,884.3,776.3,884.9,777.2,884.9
					L777.2,884.9z"/>
			</g>
			<g id="XMLID_74_">
				<path id="XMLID_27_" fill="#CBA282" d="M-17.9,972.5c60.9,2.4,123,3.1,184.2,2.7c60.2-0.4,121.4-1.6,180-7.4
					c29.2-2.9,57.7-6.7,85.2-11.4c28.8-4.9,55.2-11.2,81.5-17.9c27.2-6.9,54.8-13.5,86.5-16.9c32.7-3.5,66.7-4.8,100.5-6
					c35.5-1.2,71-2.3,106.6-3c36.3-0.7,72.4-0.8,108.7-0.8c68.5-0.1,137.2-0.1,205.6-2.2c63.9-1.9,128.8-6.2,189.3-14.4
					c62.7-8.5,117.4-21.9,174.1-34.8c27.7-6.3,56.1-12.3,86.4-16.6c30.2-4.4,61.7-7.5,93.4-9.8c63.6-4.5,129.6-6,194.1-7.2
					c16.1-0.3,32.2-0.6,48.3-0.8c4.1-0.1,4-2.3,0-2.4c-64.7-1.9-130.2-4.2-195-1.8c-64.4,2.4-127.3,7.8-185.8,18.5
					c-59.5,10.9-112.3,26.4-171.8,37.4c-57.9,10.7-121.2,17.5-184.5,21.7c-137.2,9.1-277.4,7.5-416,7.1
					c-66.1-0.2-137.9,1.3-199.1,11.6c-30.5,5.1-56.7,12.9-84.9,19.5c-25.7,6-53.1,11.1-81.4,15.1c-27.7,3.9-56.4,7-85.3,9.4
					c-29.9,2.5-60.3,5-90.8,6.2c-61.2,2.4-122.9,2.8-184.3,2.6c-15.1,0-30.2,0-45.3,0.1C-20.3,971.2-20.2,972.4-17.9,972.5
					L-17.9,972.5z"/>
			</g>
			<g id="XMLID_8_">
				<path id="XMLID_138_" fill="#CBA282" d="M-33.1,982.4c65.8,3.5,131.6,6.6,198,7.6c65.8,1,133.5,0.7,198.4-3.6
					c32.9-2.2,65.6-5.3,97.4-9.1c31.8-3.8,62.3-9,92.9-13.9c30.8-5,61.8-9.9,93.9-13.5c29.5-3.3,59.8-5.7,90.3-7.5
					c124.8-7.2,251.6-4.4,377.3-7.2c61.9-1.4,123.8-4.4,183.4-10.9c62.5-6.8,119-18.2,175.1-30.4c28.3-6.2,56.5-12.4,85.9-17.8
					c29.9-5.5,61.1-10,92.8-13.7c63.1-7.5,128.9-11,195-10.8c16.2,0.1,32.3,0.3,48.4,0.8c1.1,0,1.4-0.7,0.3-0.8
					c-128.2-7.8-260,0.5-375.7,22.5c-58.7,11.2-113.8,25.3-175.1,34.6c-57.6,8.7-118.9,13.4-180.6,15.8c-125.5,4.9-252,1.6-377.6,6
					c-62.3,2.2-124.4,6.8-183.2,15c-63.2,8.9-122.5,21.7-187.7,28.5c-64.2,6.7-131.5,9.8-198,10.5c-67.2,0.7-134.4-1-201.5-2
					c-16.6-0.3-33.1-0.6-49.6-0.9C-34,981.7-34.2,982.4-33.1,982.4L-33.1,982.4z"/>
			</g>
			<g id="XMLID_10_">
				<path id="XMLID_149_" fill="#CBA282" d="M1846.8,875.5c-31.8-1.1-63.7-2.1-95.7-2.2c-31.9-0.1-63.3-0.2-94.7,2.5
					c-30.8,2.6-58.7,7.7-84.4,14.6c-26,6.9-49.5,15-75.2,22.1c-26,7.1-53.9,12.5-84.8,16c-31.2,3.5-63.4,5.2-95.5,6.8
					c-72.2,3.6-144.1,8-216.8,10.4c-73.6,2.4-147.1,3.5-220.9,3.1c-35.1-0.2-70.1-1.2-105.2-1.1c-34.2,0.1-68.3,2.8-100.6,6.9
					c-62.7,8-118.6,22.3-178.6,32.7c-59.2,10.2-121.3,17.3-184.6,22.7c-129.3,11-261.9,13.7-394,10.7c-16.3-0.4-32.5-0.8-48.8-1.3
					c-1.8-0.1-2.3,1.1-0.4,1.2c129.3,6.7,262.1,9.4,391.8,2.8c64.9-3.3,128.7-9.4,190.1-18c62.3-8.8,119.2-21.2,178.6-32.3
					c29.2-5.5,59.4-10.6,90.9-13.9c34.4-3.6,70.7-5.6,106.3-6.3c36.3-0.7,72.5-0.2,108.8-0.4c36.6-0.2,73.3-0.7,109.9-1.4
					c73.8-1.2,147.5-3.1,221.3-4.4c65.7-1.2,132.9-3.5,193.6-13.8c58.5-9.9,99.7-29.1,155.3-40.7c57-11.8,121.6-15.7,185.8-15.9
					c15.9-0.1,31.8,0,47.7,0.1C1848.1,876.2,1848.1,875.5,1846.8,875.5L1846.8,875.5z"/>
			</g>
			<g id="XMLID_12_">
				<path id="XMLID_156_" fill="#CBA282" d="M-104.5,1043.7c74.1,1.8,148.1,3.3,222.3,3.7c72.5,0.4,147.3-0.4,218.7-5.5
					c70.7-5.1,137.8-14.2,203.1-25.5c62.6-10.9,123-23.5,186.4-33.7c63.1-10.2,128.7-17.2,197.3-19.1c68.7-1.9,137.7,0,206.3,1.8
					c133.5,3.5,274.2,6.9,395.4-18.6c31.6-6.7,61.1-14.6,92.1-21.6c30.3-6.9,62.1-12.4,96.1-16.1c68.5-7.4,140.6-7.9,211.2-7.1
					c17.8,0.2,35.6,0.5,53.4,0.8c2,0,1.9-1.1,0-1.1c-70.2-2.7-141.3-5.4-211.9-2.8c-34.4,1.3-68.7,3.7-101.4,8
					c-33.2,4.4-63.7,11-93.5,18c-30.3,7.2-60.4,14.6-93.4,19.9c-30.8,4.9-63.2,8.3-96.1,10.4c-66.5,4.2-134.7,3.3-201.7,1.8
					c-68.9-1.6-137.7-4.1-206.8-3.8c-68.5,0.3-135.8,3.9-200.8,12.4c-131.3,17-247,47.9-380.8,62.6
					c-143.6,15.8-291.8,17.3-440.3,15.9c-18.6-0.2-37.3-0.4-55.9-0.6C-105.5,1043.1-105.5,1043.7-104.5,1043.7L-104.5,1043.7z"/>
			</g>
			<g id="XMLID_13_">
				<path id="XMLID_159_" fill="#CBA282" d="M1865.2,928.6c-65.4,0.7-130.6,2-195.2,6.2c-31.7,2.1-63.9,5.4-93.2,10.5
					c-28.9,5-56.6,10.9-84.8,16.5c-27.5,5.4-55.4,10.7-84.9,14.3c-30.8,3.8-62.8,5.9-95,6.6c-65.1,1.4-130.1-1.9-194.7-4.5
					c-65.3-2.7-130.9-4.5-196.3-1c-67.2,3.6-131.7,12.1-194.8,21.3c-123.2,17.9-243.6,38.5-373.2,49c-136.3,11.1-279.4,12-417.8,7.1
					c-17.1-0.6-34.2-1.3-51.2-2.1c-1.4-0.1-1.7,0.8-0.3,0.9c136.9,9,276.6,12.4,414.7,5.6c132.8-6.5,256.4-25,380.5-43.2
					c62.2-9.1,124.7-18.4,189.5-24.5c65.6-6.2,131.3-7,198.4-4.9c65.3,2,130.1,6,195.7,6.7c65.1,0.7,128.7-2.7,188.8-12.5
					c57.7-9.4,110.3-22.7,167.5-32.6c62.5-10.8,129.4-14.8,197.3-17.3c16.4-0.6,32.8-1.1,49.2-1.6
					C1866.1,929.1,1866.1,928.6,1865.2,928.6L1865.2,928.6z"/>
			</g>
			<g id="XMLID_14_">
				<path id="XMLID_164_" fill="#CBA282" d="M702.5,1024.2c40.9-4.5,82.4-8.3,124.1-11.5c41.5-3.1,83.4-5,125.6-6.1
					c42.4-1,85.1-1.4,127.6-0.8c43.6,0.5,87,2.2,130.4,4c84.1,3.6,169.7,6.9,253.6,0.9c40-2.8,78.2-8.1,113.5-15.7
					c17.5-3.8,34.5-7.9,52.7-11.2c17.9-3.2,37.3-5.2,56.7-6.5c40.8-2.7,83-2.2,124.3-1.7c22.3,0.2,44.5,0.6,66.8,0.8
					c22.2,0.2,44.5,0.8,66.6,0.5c11.4-0.1,22.5,0,33.9-0.3c4.4-0.1,5.5-2.4,1.1-3c-21.4-2.5-43.9-3.8-66-4.9
					c-22.2-1.2-44.7-2.1-67.1-2.6c-42.7-0.9-86.2-1.7-128.9-0.5c-42.3,1.2-82.1,5.1-119.2,12.9c-17.9,3.8-35.2,8-53.6,11.5
					c-17.7,3.3-36.2,5.9-55.3,7.9c-80.8,8.5-165.7,6.1-248,2.8c-44.2-1.8-88.5-3.7-132.9-4.4c-21.3-0.4-43.2-0.7-64.5-0.3
					c-21.1,0.5-42.5,0.4-63.6,1.4c-84.2,3.9-169,9.6-248.6,21.1c-10.1,1.4-20.1,3-30.1,4.5C700,1023.3,700.6,1024.4,702.5,1024.2
					L702.5,1024.2z"/>
			</g>
			<g id="XMLID_15_">
				<path id="XMLID_166_" fill="#CBA282" d="M1350.1,1023.6c-37.3-1.2-74.7-2-112.1-2.3c-37.4-0.3-74.7,0.1-112.1,0.1
					c-18.6,0-37.3,0.1-55.9,0.3c-18.6,0.2-37.3,0.3-55.7,1.2c-31.9,1.4-63.8,3.1-95.3,5.6c-57.7,4.6-114.9,12.2-161.8,26
					c-11.2,3.3-21.8,6.9-31.3,11c-11,4.7-22.3,9.9-24.1,16.3c-1.9,6.9,10.3,12,25.6,15c15.3,3,31.8,5.3,48.3,7.2
					c67.6,7.7,140,7.9,209.9,8.5c18.9,0.2,38.2-0.5,57.1-0.8c19-0.3,38.1-0.8,57.1-1c38.1-0.4,76.1-1,114.2-1.6
					c68.8-1.1,138.3-2.5,206-7.6c33-2.5,66-5.6,97.3-10.3c14.6-2.2,29-4.1,41.9-7.5c12.7-3.4,23.5-7.6,28.7-13.3
					c11.3-12.1-11.9-24.6-38.6-30.4c-14.5-3.1-30.7-5-46.9-6.5c-17.7-1.7-35.5-3.2-53.5-4.2c-9.1-0.5-18.1-0.6-27.2-0.7
					c-9.4-0.1-18.9-0.6-28.4-0.8c-18.4-0.5-36.5-1.6-54.8-2.4c-36.6-1.6-73.6-3-110.4-3.2c-17.7-0.1-35.5-0.1-53.2,0.1
					c-1.4,0-1.4,0.8,0,0.8c35.5,0.7,71,1.8,106.3,3.2c18,0.7,36,1.5,53.9,2.4c17.5,0.9,35.2,1.8,52.3,3.4c7.8,0.8,15.7,1.6,23.5,2.4
					c8.9,0.9,17.4,2.4,26.2,3.4c16.7,1.9,33.7,3.2,50.6,4.7c26.7,2.4,58.6,5.2,72.1,15.4c5.2,3.9,5.5,8.3,0.1,12
					c-5.8,4-16,6.9-26.2,9.3c-13.1,3-26.2,5.8-40.2,8.2c-14.8,2.5-29.9,4.6-45.3,6.4c-62,7.4-127.7,9.2-192.2,10.2
					c-36,0.6-72,0.9-108.1,0.9c-36.6,0-73.1-0.4-109.6-1.2c-17.5-0.4-35-1.2-52.5-1.4c-18-0.2-35.9-0.4-53.9-0.6
					c-32.4-0.5-65-1.1-97.1-3.1c-31-1.9-62.1-4.9-90.5-10c-4.8-0.9-11.4-1.9-14.2-3.6c-2.6-1.6-1.1-3.3,1.1-5
					c5.8-4.5,16.5-8.4,25.9-11.8c39-14.1,90.1-22,141.6-27.3c27.2-2.8,55-4.9,82.8-6.5c17.2-1,34.6-1.6,51.7-2.9
					c16.7-1.3,33.6-2.3,50.4-3.2c17.8-1,35.7-2,53.6-2.8c17.8-0.8,35.9-1.1,53.8-1.4c35.9-0.6,71.8-0.8,107.7-0.6
					c17.2,0.1,34.4,0.3,51.5,0.6C1350.6,1023.9,1350.6,1023.6,1350.1,1023.6L1350.1,1023.6z"/>
			</g>
			<g id="XMLID_22_">
				<path id="XMLID_173_" fill="#CBA282" d="M1219.7,1037.4c-39.9-0.1-79.8,0.7-119.5,2.3c-19.7,0.8-39.3,1.8-58.9,3
					c-19.7,1.2-39.4,2.2-59.1,3.4c-19.9,1.2-40.2,2.1-59.6,4.3c-19.3,2.2-38.4,4.6-57.4,7.2c-19,2.6-37.8,5.5-56.4,8.5
					c-7.8,1.3-15.5,3-19.6,6c-4.8,3.5-2.5,7.9,5.3,10.5c6.6,2.2,15.1,3.1,23.5,3.8c9.6,0.8,19.1,1.6,28.7,2.4
					c19.9,1.5,40.2,2.1,60.4,2.5c19.8,0.4,39.6,0.8,59.4,1c19.5,0.2,39.1,1,58.6,1.4c39.5,0.7,79.1,0.7,118.6,0.3
					c19.9-0.2,39.8-0.8,59.8-0.9c19.9-0.1,39.7-0.4,59.5-0.8c9.7-0.2,19.4-0.5,29.1-0.6c10.1,0,20-0.6,30-1.2
					c19.8-1.1,39.5-2.3,59.1-3.8c38.7-3,76.9-7.1,114.5-11.7c9.3-1.1,18.6-2.3,27.9-3.6c11.1-1.5,12.8-6.7,3.2-9.2
					c-20.6-5.4-43.3-11-67.3-13.9c-11.9-1.4-23.9-2.7-35.8-4.1c-12-1.4-24.2-2.6-36.5-3.6c-48.3-4-97.5-6.4-147-5.5
					c-27.7,0.5-55.8,1.7-82.4,4.8c-1.3,0.1-0.7,0.8,0.5,0.7c24.7-1.5,49.3-3,74.3-3.5c23.9-0.5,47.8-0.2,71.6,0.7
					c24.3,1,49.7,2.8,72.9,5.8c22.5,2.9,45,6.1,65.4,10.9c23.6,5.4,48.1,10.3,70.8,16.3c1.1-3.1,2.1-6.1,3.2-9.2
					c-35.7,4.7-72,8.8-108.7,12.3c-18.3,1.7-36.7,3.4-55.1,5c-9.2,0.8-18.4,1.7-27.6,2.4c-9.2,0.7-18.7,1.2-27.8,2
					c-9.2,0.8-18,2-27.2,2.7c-9.2,0.7-18.4,1.4-27.6,2c-18.8,1.3-37.9,2.7-56.9,3.2c-37.7,1-75.6,1.5-113.4,1
					c-38.3-0.5-77.2-1.2-114.9-3.9c-37-2.7-72.9-7-109.7-9.8c-9.3-0.7-18.5-1.4-27.7-2.3c-3.1-0.3-5.2-0.5-7-0.9
					c-0.3-0.1-0.7-0.2-0.7-0.2c0.3,0.4,0.9,0.8,1.1,1.2c0,0-0.5,0.6-0.6,0.6c-0.1,0,1-0.3,1.3-0.4c1.5-0.4,3.2-0.7,4.9-1
					c3.9-0.7,7.9-1.3,11.9-1.9c8.8-1.4,17.7-2.7,26.6-4c17.8-2.6,35.8-5,54-7.3c18.2-2.2,37-4.3,54.7-7.1
					c35.2-5.6,72.4-8.8,109.9-11.4c38-2.6,76.5-4.4,115-5.5c9.5-0.3,19.1-0.5,28.6-0.6C1220.1,1037.7,1220.1,1037.4,1219.7,1037.4
					L1219.7,1037.4z"/>
			</g>
			<g id="XMLID_26_">
				<path id="XMLID_180_" fill="#CBA282" d="M1209.5,1046.2c-21-0.6-42.1-0.6-63,0.1c-20.4,0.7-40.4,2.3-60.6,3.4
					c-4.9,0.3-9.9,0.4-14.8,0.7c-5.2,0.3-10.2,1-15.4,1.4c-11,0.8-20.7,2.3-31,4c-19.4,3.2-37.7,7.1-55.1,11.7
					c-5,1.3-7.8,3.4-6.2,5.7c5.9,8.4,31.9,9,50.7,8.8c23.2-0.2,46.4-0.2,69.7-0.5c22.9-0.3,45.9-0.4,68.8-0.8
					c22.9-0.4,45.7-1.1,68.5-1.7c23.1-0.6,46.1-0.8,69-1.9c11.8-0.6,23.5-1.1,35.2-1.8c11.2-0.7,22.3-1.2,32.7-2.9
					c8.4-1.4,16.6-3.7,20.3-6.9c4.6-4,0.9-8.4-8.8-10.7c-8.4-2.1-19.6-2.5-29.2-3.1c-11.2-0.7-22.4-1.5-33.7-2.3
					c-24.4-1.6-49.4-2.7-74.2-3.2c-25.3-0.4-49.8,0.1-74.7,1.8c-1.2,0.1-1,0.9,0.3,0.8c20.1-0.4,40.4-0.4,60.6-0.1
					c20.5,0.3,41.2,0.9,61.3,2.5c19.5,1.6,38.6,3.5,56.7,6.7c4.3,0.7,8.5,1.5,12.7,2.3c1.4,0.3,2.7,0.7,4.1,0.9
					c0.5,0.1,1.9,0.3,1.1,0.2c-0.7-0.1,0.7,0.2,0,0.4c0.1,0,0.5-0.6,0.6-0.6c-1.3,0.6,0.3,0.1-1.3,0.7c-1.5,0.5-4.8,1.3-6.9,1.6
					c-4,0.6-8.4,0.9-12.5,1.4c-4.8,0.6-9.7,1.2-14.6,1.8c-10.1,1.2-20.2,2.3-30.3,3.4c-9.8,1-19.8,1.7-29.5,2.9
					c-9.8,1.2-19.4,2-29.5,2.7c-20.9,1.4-41.7,2.4-62.9,2.8c-20.6,0.4-41.6,0.8-62.2,0.3c-23.2-0.6-46.7-1.5-69.5-3.3
					c-10.9-0.9-21.6-2.1-32.6-2.8c-3.9-0.3-8.1-0.5-11.8-1.1c-0.1,0-2.3-0.5-2.3-0.5c0.9,0.2-0.6-0.2-0.6-0.3c0.5,0.3,1.1,0.9,0.5,0
					c-2.1,1.9-4.1,3.8-6.2,5.7c16.9-4.3,34.6-8.2,52.8-11.6c8.9-1.7,17.7-3.2,26.2-5c4.6-1,9.3-1.7,14-2.6c4.4-0.8,8.4-1.8,12.8-2.5
					c18.2-3.1,38.6-4.7,58.3-5.9c20.6-1.3,41.4-1.9,62.3-2C1209.9,1046.5,1209.9,1046.2,1209.5,1046.2L1209.5,1046.2z"/>
			</g>
			<g id="XMLID_137_">
				<path id="XMLID_172_" fill="#CBA282" d="M862.1,1008.2c-31.6-2.6-64.5-2.1-95.9,0.8c-16.6,1.5-32.9,3.6-48.8,5.9
					c-16,2.4-32.4,4.7-47.7,7.6c-30.9,5.9-61.1,12.4-92.1,18.3c-31,5.9-62.9,11-95.8,15.2c-65.7,8.4-134.8,13.4-203.6,16.4
					c-70.7,3.1-141.6,3.4-212.7,3.2c-71.3-0.2-142.5-0.6-213.6-2.3c-8.6-0.2-17.2-0.4-25.8-0.6c-1.7,0-2.1,1-0.4,1.1
					c34.8,1.9,69.7,3.6,104.5,5.4c35.6,1.8,71.3,3.6,107.1,4.4c70.7,1.7,141.6,1.4,212.2-1c70.1-2.4,139.9-7,207-15.1
					c33.4-4,66.3-8.6,98.3-14c32-5.4,62.5-12,93-18.5c58.9-12.4,119.9-26.6,189.6-26.8c8.2,0,16.3,0.2,24.5,0.5
					C862.8,1008.8,863,1008.3,862.1,1008.2L862.1,1008.2z"/>
			</g>
			<g id="XMLID_144_">
				<path id="XMLID_201_" fill="#CBA282" d="M931.3,1016.5c-37.1-3-74.7-0.6-110.6,3.4c-9.3,1-18.4,2.2-27.8,3.1
					c-9.2,0.9-17.9,2.2-27,3.3c-17.9,2-35.2,4.7-52.4,7.5c-69.8,11.1-139.2,22.6-209.3,33.5c-69.4,10.7-140.1,20.6-213.1,27.3
					c-76.9,7.1-155.7,10-234.7,10.4c-40,0.2-80.1-0.2-120.1-0.8c-40.4-0.7-80.7-1.6-121.2-0.7c-10,0.2-20,0.3-29.9,0.5
					c-4.1,0.1-5.5,2.5-1,2.9c19.3,1.4,38.6,3,58.1,4.2c20.4,1.2,41.2,2,61.8,2.5c40,1.1,80.1,1.7,120.2,1.8
					c80.3,0.2,160.9-1.8,239.7-7.9c73.5-5.7,145.2-14.6,214.7-25.2c70.3-10.7,139.7-22.5,207.8-35.1c16.9-3.1,34.3-5.8,51.5-8.7
					c8.5-1.4,17.1-2.9,25.5-4.4c4-0.7,7.7-1.7,11.8-2.4c4.4-0.8,8.9-1.4,13.2-2.3c34.4-6.9,73.1-12.2,112.4-12.8
					c10.1-0.2,20.2,0,30.2,0.6C931.8,1017,932.1,1016.6,931.3,1016.5L931.3,1016.5z"/>
			</g>
			<g id="XMLID_145_">
				<path id="XMLID_208_" fill="#CBA282" d="M1263.2,1121.5c-100.5,2.9-201.8,5.8-302.7,3.9c-49.3-0.9-98-3.2-145.9-7.9
					c-46.5-4.5-91.8-10.6-137.8-15.7c-45.3-5.1-91.7-9.4-139.2-10.1c-49.7-0.8-96.7,3.6-143.7,9.3c-94.8,11.6-190.9,21-289.6,26.4
					c-99.3,5.5-200,7.4-300.2,5.7c-12.2-0.2-24.5-0.5-36.7-0.8c-1.7,0-1.7,1,0,1c99.5,3.7,199.8,4,299.5,0.7
					c99.2-3.2,198.4-9.6,294.2-19.9c47.2-5.1,94.1-11.7,143.5-12.7c46.7-1,93,2.3,138,6.9c46.3,4.7,91.5,10.9,137.6,15.9
					c47.8,5.2,96.6,8.6,146.2,10.1c101.1,3,201.4-2.9,300.5-9.9c12.1-0.9,24.3-1.7,36.4-2.6
					C1263.9,1121.8,1263.8,1121.5,1263.2,1121.5L1263.2,1121.5z"/>
			</g>
			<g id="XMLID_151_">
				<path id="XMLID_215_" fill="#CBA282" d="M1236.4,1122c66.2-2.5,132.5-5.3,198.8-7.3c28.2-0.9,56.4-1.5,84.4-2.8
					c13-0.6,26.2-0.9,39-1.8c12.5-0.9,25-1.9,37.3-3.2c24.4-2.5,47.9-6.3,68.9-11.7c10.5-2.7,20.7-5.8,29.7-9.2
					c9.6-3.7,17.5-7.8,25.8-11.9c8.3-4.1,17.4-8,29.2-10.6c11.9-2.7,25.2-4.2,38.5-5.6c31.1-3.2,62.5-5.9,94-8.4
					c71.9-5.7,144.2-10.2,217.4-12.6c2.9-0.1,2.9-1.7,0-1.7c-65.4-0.5-130.5,1-195.4,4.1c-32.5,1.5-65.1,4-97,6.8
					c-29.5,2.6-60.6,5.1-84.5,12.6c-11.2,3.5-19.8,8-28.5,12.4c-7.7,3.8-15.9,7.4-25.3,10.7c-17.8,6.1-39.5,10.4-61.4,14
					c-47.3,7.6-98.3,10.8-148.7,13.9c-73.9,4.6-148.1,8.2-222.3,12C1235.5,1121.5,1235.7,1122,1236.4,1122L1236.4,1122z"/>
			</g>
			<g id="XMLID_158_">
				<path id="XMLID_222_" fill="#CBA282" d="M2095.3,991.2c-40-1.3-80.2-2.4-120.4-2.7c-40-0.3-80.2,0.1-120.2,1.1
					c-40.4,0.9-80.9,3-121,5.1c-39.8,2.1-79.4,4.5-118.8,7.4c-9.9,0.7-19.7,1.5-29.5,2.2c-8.2,0.6-16.8,1.1-24.7,2.3
					c-8.2,1.3-16,3.4-18.6,6.8c-2.8,3.7,1.7,7,7.4,9.9c19.9,10,50.2,16.5,82.3,19.3c17.7,1.5,35.8,1.9,53.8,1.9
					c10.3,0,20.9-0.5,31.1-1.1c9.9-0.6,19.9-1.1,29.5-2.1c9.6-1,19.7-1.5,29.5-2.2c9.9-0.8,19.8-1.5,29.7-2.2
					c19.9-1.3,39.8-2.5,59.8-3.6c80.6-4.3,162.7-5.5,244-5.3c10.1,0,20.3,0.1,30.4,0.2c0.8,0,0.8-0.4,0-0.4c-77.3-1.3-154.8-1-232,1
					c-38.9,1-77.7,2-116.5,3.3c-38.1,1.3-76.2,3-114.6,2.6c-29.8-0.3-60.4-3.1-85.2-9.7c-5.5-1.5-10.6-3.3-15.2-5.2
					c-1.9-0.8-3.8-1.6-5.4-2.5c-0.3-0.2-2.6-1.7-2.9-1.7c1.6,0-1,1.5-1,1.7c0-0.3,2.6-0.7,3.6-0.8c3.9-0.5,8.1-0.8,12.1-1.1
					c9.1-0.7,18.2-1.4,27.3-2.1c75-5.7,150.7-9.8,226.9-12.5c76.4-2.7,152.7-5.8,229.3-7.3c9.7-0.2,19.3-0.4,29-0.5
					C2097.3,992.4,2097.2,991.3,2095.3,991.2L2095.3,991.2z"/>
			</g>
			<g id="XMLID_160_">
				<path id="XMLID_229_" fill="#CBA282" d="M2050.4,1076.9c-71.8-5-147-3.8-216.4,5c-35.3,4.5-68.8,10.5-100.6,17.8
					c-33.5,7.7-66,16.2-102.7,21.7c-35.5,5.3-73.1,8.3-110.7,10.4c-19.6,1.1-39.3,1.7-58.9,2.6c-20,0.9-39.6,2.4-59.4,3.8
					c-41.9,2.9-85.6,4-128.1,5.4c-41.9,1.4-83.8,2.7-125.8,4c-42.7,1.4-85.3,2.6-128.1,3.5c-42.3,0.8-84.4,2.1-126.2-1.2
					c-38.6-3.1-75.3-9.2-113.3-13.2c-34.8-3.6-70.4-6.1-106.2-7.8c-146.5-6.8-295,3.1-438.6,13.7c-146.3,10.8-296.1,21.8-445.8,20.9
					c-18.7-0.1-37.3-0.5-56-1c-1.8-0.1-1.7,1,0,1.1c148,7,296-1.2,441.9-10.6c145.9-9.4,295.2-19.2,443.6-15.9
					c36.1,0.8,72.1,2.4,107.6,5c37.2,2.8,72.4,7.6,108.8,11.3c18.8,1.9,37.8,3.6,57.2,4.5c20.8,1,42.2,0.6,63.1,0.1
					c42-1,83.6-3.5,125.6-4.8c83.8-2.5,167.6-5.7,251.5-7.5c21.3-0.5,42.7-1.2,64-1.4c20.7-0.2,41.2,0.4,61.9,0
					c37.9-0.9,76.1-2.8,113.2-5.8c37.1-3,73.1-7.7,106.5-14.5c34.3-7,66-15.6,100.5-22.4c66.5-13.2,139.9-20.7,214.5-23.4
					c18.7-0.7,37.6-0.8,56.4-0.7C2051,1077.4,2051.2,1076.9,2050.4,1076.9L2050.4,1076.9z"/>
			</g>
			<g id="XMLID_161_">
				<path id="XMLID_236_" fill="#CBA282" d="M-36.4,735.5c64.5,1,133.8,1.9,191.9-10.5c48.2-10.3,84.7-27.3,120.2-42.9
					c18.2-8,37-15.9,58.1-22.9c24.3-8,52.3-13.5,83-17.3c33.3-4.1,68.2-5.9,102.9-7.5c37.4-1.7,75-3,112.6-4.1
					c75.5-2.3,152.3-2,227.9-0.3c36.1,0.8,73.1,2,107.2,6.9c27.9,4,50.4,10.9,74.1,17.6c44.8,12.7,86.4,27.8,137.5,36.8
					c63.4,11.3,136.8,10.8,205.4,10.9c75,0.2,149.9,0.3,224.9-0.8c37.7-0.6,75.4-1.4,112.9-2.9c36.2-1.5,74.1-2.6,109.3-6.1
					c17.3-1.7,33.7-3.7,50.2-6.3c3.9-0.6,1.7-2.9-2.1-2.9c-36.9,0.3-73,2.3-109.6,3.9c-37.4,1.6-75,2.7-112.5,3.6
					c-74.2,1.7-148.6,1.9-222.9,1.8c-37.7,0-75.4,0.1-113-0.5c-35.2-0.5-71-1.7-104.8-5.6c-54.1-6.3-97.2-20.1-141.5-32.8
					c-48.4-13.9-104.8-23.8-165.6-26.1c-36.9-1.4-74.4-1.6-111.5-1.7c-37.7-0.2-75.4,0-113,0.6c-72.4,1.1-145.2,2.4-216.8,7
					c-62,4-119,12.4-167.2,27.9c-42.4,13.7-75.9,30.8-117.3,44.9c-20.4,6.9-43.5,13.1-68.6,17.4c-31.7,5.4-66.1,7.8-100.5,9
					c-17,0.6-34,1-51,1.3C-38.9,734-38.9,735.4-36.4,735.5L-36.4,735.5z"/>
			</g>
			<g id="XMLID_163_">
				<path id="XMLID_242_" fill="#CBA282" d="M-61,710.7c61.1,5.8,129.6-1.4,184.6-11.7c58.6-11,109.6-26.4,162.4-40.8
					c25.6-7,50.5-14.6,78.6-20.1c30.2-6,62.1-10.3,95.4-12.9c35.1-2.7,70.9-3.8,106.5-4.8c35.1-1,70.2-2.1,105.3-3.3
					c70.6-2.4,142.6-6,213.6-5.1c63,0.8,121.1,11.9,175,23.2c55.7,11.7,111.9,22.8,173.8,29.1c65.9,6.8,133.8,9.7,201.3,13.2
					c33.6,1.7,66.9,3.9,100.7,4.8c34.7,0.9,69.6,0.8,104.4,0.2c35.3-0.6,70.5-1.9,105.6-3.4c33.7-1.4,68.4-2.5,101.4-5.4
					c16.4-1.5,32.8-2.9,49.2-4.3c4.6-0.4,3.5-3.1-1.1-3.1c-34.5-0.1-68.2,0.2-102.5,1.5c-34.5,1.4-68.9,2.8-103.4,3.8
					c-68.8,2-138,2.7-206.4-1.3c-67.1-3.8-134.8-6.4-201.2-11.7c-64.2-5.1-124.2-13.6-183.8-23.8c-28-4.8-56.4-9.1-84.9-13.5
					c-28.5-4.3-58.1-8.2-88.3-10.5c-30.2-2.3-60.5-1.9-91.2-1.3c-36.1,0.6-72,1.8-108,3.1c-35.4,1.3-70.8,2.7-106.3,3.6
					c-35.2,0.9-70.5,1.1-105.6,2.3c-33.4,1.1-66.7,3-98.9,6.7c-30.1,3.5-59,8.6-86.8,14.2c-56.5,11.3-105.8,26.6-158,40.4
					c-54,14.3-115.5,27.5-182.3,29.7c-16.1,0.5-32.6,0.5-48.7,0C-62.3,709.5-62.6,710.5-61,710.7L-61,710.7z"/>
			</g>
			<g id="XMLID_165_">
				<path id="XMLID_243_" fill="#CBA282" d="M-47,688.3c62.1,4.3,127.1-4.1,179-16.9c55.9-13.7,104.7-31.4,163.5-43.5
					c58-12,122.5-18.2,187.2-22.2c70.5-4.4,141.3-6.8,212.8-7c73-0.2,146.9,0.6,219.2,4.7c35.7,2,70.9,4.9,105.4,8.9
					c34.4,4,67.2,9.4,100.8,14.2c129.9,18.4,269.6,26.8,407.7,29.8c139.2,3,278-0.7,415-10.2c16.7-1.2,33.4-2.4,50.1-3.7
					c2.3-0.2,1.9-1.7-0.6-1.6c-137.6,5.1-277,7.8-415.2,6.4c-139-1.4-275.1-9.5-408.8-23.8c-68-7.3-135.1-16.4-204.7-21.3
					c-70.5-4.9-143.1-6.4-214.8-7c-71.8-0.6-144.1,0.3-215.8,2c-64.9,1.6-130.1,5.6-191.3,14.2c-61.9,8.7-113.8,23.1-165.1,38.4
					c-51.6,15.5-108.1,31.8-174.1,36.8c-16.5,1.3-33.3,1.6-50.1,1.2C-47.5,687.8-47.7,688.3-47,688.3L-47,688.3z"/>
			</g>
			<g id="XMLID_200_">
				<path id="XMLID_250_" fill="#CBA282" d="M-51.1,656.4c60.9,5,123.3-1.7,177.7-12.2c28.2-5.4,54.8-11.9,81-18.6
					c26-6.6,50.8-13.9,77-20.4c26.6-6.6,54.7-12.4,84.7-16.5c31.8-4.4,66.2-6.2,99.7-7.4c66.8-2.4,134.5-2.2,201.6-2.3
					c135.1-0.2,273.4,1.6,402.8,17.8c64.5,8,126.7,18.6,193.3,24c66.7,5.4,135.2,6.8,203.3,7.2c70.5,0.3,141.1,0.1,211.7-0.3
					c70.9-0.5,143,0,213.4-3.5c16.8-0.8,33.6-1.7,50.3-2.9c4-0.3,2.6-2.4-0.9-2.5c-35.3-1.3-71.1-2.3-106.6-2.1
					c-35.6,0.2-71.1,0.6-106.7,0.8c-70.5,0.4-141,0.6-211.4,0.6c-68.4,0-137.4-0.1-205.1-3.9c-67.4-3.8-131.1-12.5-196-20
					c-127.9-14.7-264-18.2-397-18.3c-67.5-0.1-135.1,0.6-202.6,1.4c-64.1,0.7-128.5,3.4-188.5,12.4c-57.7,8.7-109.7,21.4-161.3,34.3
					c-51.7,12.9-109,25.6-170.9,29.6c-16,1-32.5,1.4-48.7,1.2C-52.8,654.9-53.3,656.3-51.1,656.4L-51.1,656.4z"/>
			</g>
			<g id="XMLID_207_">
				<path id="XMLID_257_" fill="#CBA282" d="M1834.3,522.6c-68.3-1.6-136.6-3-205-3.2c-68-0.2-136.1,2.5-202.7,7.6
					c-32.9,2.6-65.4,5.8-97.1,9.9c-31.8,4.1-63.8,8.8-93.4,14.9c-13.4,2.7-26.8,6.8-30.3,12.8c-3.6,6.1,3.1,12.6,15.1,16.8
					c12.3,4.3,28.7,6.2,45,7c17.6,0.9,35.3,1.5,52.9,2.3c69.3,3,138.7,5.6,208.3,7.1c69.6,1.5,139.4,1.7,209-0.1
					c69.1-1.8,138.1-5.4,204.5-13c32.6-3.7,64.6-8.1,95.8-13.3c13.6-2.3,27.4-4.5,39.3-8c9.3-2.7,18.3-6.2,20.5-10.7
					c5.3-11-30.3-17.2-51.7-20.8c-28-4.8-58.1-7.5-88.4-9.4c-63.1-3.9-127.7-4-191.5-4.9c-15.3-0.2-31.9-0.3-46.8-1.6
					c-3.4-0.3-4.8,1.7-1.4,2c7.3,0.7,14.4,1.7,21.7,2.4c7.9,0.8,15.8,1.5,23.8,2.1c15,1.2,30.1,2,45.4,2.3
					c30.6,0.5,61.3,0.6,91.9,0.7c30.1,0.1,60.5,0.4,90.1,2.6c28.4,2.1,59,5.4,82.9,11.8c11.6,3.1,22,7.9,17,13.6
					c-4.2,4.8-16.5,7.7-27.8,9.8c-13.7,2.5-28.8,4.1-43.3,5.8c-15.6,1.8-31.4,3.5-47.2,5c-32.1,3.1-64.5,5.3-97.1,7.5
					c-32.1,2.2-64.4,3.9-96.8,5.1c-132.1,4.8-265.5,2-397.3-3c-33-1.2-66-2.6-98.9-4.2c-12.9-0.6-28.1-1.3-38.6-4.3
					c-4.4-1.3-8.1-3.1-9.8-4.9c-1.8-2-1.7-3.3,1.5-5.2c6.7-3.8,22.5-5.9,33.5-7.9c14.1-2.5,28.3-4.8,42.8-6.9
					c29.8-4.3,60.3-7.8,91.3-10.7c61.9-5.7,125.6-8.8,189.1-10.7c32.5-1,64.9-2.4,97.5-3.1c32.5-0.7,65-1.3,97.5-1.7
					c16.2-0.2,32.3-0.4,48.5-0.6C1835.7,523.4,1835.7,522.6,1834.3,522.6L1834.3,522.6z"/>
			</g>
			<g id="XMLID_214_">
				<path id="XMLID_264_" fill="#CBA282" d="M1909.8,535.9c-39.8-0.9-79.6-1.8-119.4-2.5c-40.1-0.6-80.4-1.4-120.6-1.1
					c-40.2,0.3-79.9,1.2-119.7,3.2c-39.1,2-77.9,4.8-116,8.7c-21,2.1-42.7,4.3-62.7,7.5c-17.8,2.9-34.1,8.5-30.3,16.4
					c1.1,2.3,7.2,3.5,12.6,3.6c55.2,1.7,110.6,3.2,166,3.3c13.7,0,27.5,0.4,41.2,0.5c13.7,0.1,27.5,0,41.2,0.3
					c27.5,0.7,54.8,0.7,82.4,0.5c55.6-0.4,111.2-2.9,165.8-6.9c26.7-1.9,54.3-3.8,80.3-6.8c19.8-2.3,46.1-8.9,40.2-18.1
					c-3.6-5.6-17.4-8.1-30.7-9.7c-15.1-1.8-31.1-3.5-47.1-3.1c-14.8,0.4-29.7-0.1-44.6,0.2c-15.2,0.3-30.3,0.7-45.3,1.6
					c-2.1,0.1-1.5,1.4,0.5,1.4c25.8-0.1,51.6,0.7,76.6,3.2c5.9,0.6,11.2,1.8,16.9,2.5c6.4,0.8,12.9,1.5,19.4,2.2
					c5.5,0.6,11,1.2,16.4,1.8c3.8,0.5,8.5,0.9,11.1,1.9c0.8,0.3,1.4,0.6,0.4,0.2c-0.1,0,2,0.9,0.2,0.1c0.2,0.1-0.2,1.1,0.1,0.1
					c-0.3,0.8-0.4,0.4,0.1,0.2c-2,1.2-3.5,2-6.5,2.8c-8.2,2.3-16.4,3.1-26.3,4c-25.2,2.4-50.6,4.6-76.2,6.5
					c-25.2,1.8-50.5,3.4-75.7,5c-25.1,1.6-50.3,2.7-75.6,3.9c-25.9,1.3-52,2.1-78,3c-25.5,0.9-51.4,0.5-77,0.1
					c-28.9-0.4-58.2-2.1-86.9-3.7c-28.8-1.6-57.2-4-85.4-6.8c3.2,1.6,6.4,3.2,9.6,4.8c0-0.9-0.4,0,0-0.8c0.2-0.3,0.4-0.7,0.7-1
					c-0.1,0.1-0.6,0.5,0.1,0c0.9-0.7,2.8-1.4,4.9-2c4.9-1.4,11.1-2.4,17-3.1c17.7-2.3,35.6-4.4,53.7-6.2
					c36.4-3.7,73.4-6.4,110.7-8.4c37.4-2,75.1-3.6,112.7-4.9c38-1.2,76-2.4,114.2-3c43-0.6,86-0.9,129.1-1.2
					C1910.5,536.3,1910.5,535.9,1909.8,535.9L1909.8,535.9z"/>
			</g>
			<g id="XMLID_221_">
				<path id="XMLID_263_" fill="#CBA282" d="M1703.8,505.8c-134.6-7.8-267.9,3.1-396.5,17.7c-66.2,7.5-132.1,15.4-199.4,21.5
					c-70.6,6.4-141.9,10.1-214.5,10.7c-76,0.7-151.9-1.3-227.8-2.5c-37-0.6-74.1-1.3-111.2-0.7c-34.8,0.5-69.7,1.3-104.4,2.7
					c-68.5,2.7-137,7.4-201.4,17c-66.8,10-125.9,25.9-193.1,35.6c-68,9.9-140.3,15.4-212.1,19.5c-37.7,2.2-75.8,3.7-113.9,4.5
					c-38,0.8-75.6,0.1-113.6-0.5c-18.4-0.3-36.9-0.8-55.3-1.4c-2.5-0.1-2.8,1.3-0.6,1.6c71.4,7.8,147.9,6.9,221.2,3.9
					c72.3-3,145.1-8.1,214.9-15.9c33.5-3.7,66.3-8.3,97.9-13.9c32.8-5.9,64-13,96.3-19.3c64.1-12.4,132.8-20,204.2-23.6
					c69.3-3.5,138.7-1.8,208.1-0.8c76.6,1,153,3.2,229.7,3.7c74.3,0.4,148.4-1.1,221.6-6.2c67.8-4.8,134.2-12.1,200.2-19.6
					c65.9-7.5,131.6-15.2,198.2-21.8c65.7-6.5,133-11.6,201.1-12.2c16.8-0.1,33.6,0,50.3,0.4
					C1704.4,506.4,1704.6,505.9,1703.8,505.8L1703.8,505.8z"/>
			</g>
			<g id="XMLID_228_">
				<path id="XMLID_256_" fill="#CBA282" d="M1772.1,485.6c-131.5-3.6-264.4-6.5-394.6,3.3c-124.1,9.4-239.6,30.5-364,39.4
					c-131.2,9.4-266.6,6.3-399.4,7.4c-66.4,0.5-132.7,1.8-198.6,4.8c-64.7,3-127.8,8.1-190.4,15c-121.1,13.4-249.1,30.2-376.6,19.7
					c-14.7-1.2-29.4-2.8-43.9-4.4c-1.4-0.2-2.4,0.7-1,0.9c53.1,10.3,116.2,12.2,174.8,10.5c63.9-1.9,126.1-8.1,187.7-14.6
					c63.4-6.7,127-12.6,192.1-16.5c66.5-3.9,133.7-5.7,200.9-6.8c132.9-2.2,266.8,1,399.2-4.8c128.3-5.6,246.8-25.1,369.7-38.7
					c63.4-7,127.2-12.1,193.2-14.1c67-2,134.4-1.7,201.5-1.2c16.5,0.1,32.9,0.3,49.4,0.4C1772.7,486,1772.7,485.6,1772.1,485.6
					L1772.1,485.6z"/>
			</g>
			<g id="XMLID_235_">
				<path id="XMLID_249_" fill="#CBA282" d="M-126.4,557.5c64.1,0.2,129-1.4,192.6-4.7c32.6-1.7,65-3.9,96.7-7.3
					c31.3-3.3,61.9-7.4,92.5-11.5c62.7-8.4,125.2-15.3,191.4-18.3c64-2.9,128.7-3.3,193.1-3.2c64.9,0.1,129.7,0.6,194.5-0.8
					c64.8-1.4,128.4-4.9,191.7-10.1c64.7-5.4,129-11.5,193.9-16.6c66.2-5.1,133.6-7.7,201.1-8.3c135.1-1.4,269.7,4.2,403.6,10.5
					c16.9,0.8,33.8,1.6,50.7,2.3c1.3,0.1,1.6-0.8,0.3-0.9c-132.8-8.3-267-15.5-401.7-16.7c-66.5-0.6-133.2,0.6-199.2,4
					c-65.9,3.4-130.4,9.2-195.1,14.8c-64.3,5.6-128.8,11-194.6,13.5c-65.1,2.5-130.6,2.3-196,2.3c-128.6,0-258-0.6-381.9,14.3
					c-63.1,7.6-123.8,17.6-188.4,23.3c-64.4,5.7-129.8,8.6-195.6,10.8c-16.5,0.5-32.9,1.1-49.3,1.9
					C-127.5,556.9-127.6,557.5-126.4,557.5L-126.4,557.5z"/>
			</g>
		</g>
		<g id="XMLID_47_">
			<g id="XMLID_143_">
				<path id="XMLID_146_" fill="#CBA282" d="M616.4,304.5c41.1,2.2,81.6,0.2,121.1-3.3c41.8-3.7,79.8-10.1,115.3-17.5
					c70.2-14.5,128.9-34.4,175.7-55.4c11.7-5.3,25.3-10.8,31.1-17c5.8-6,1.3-12.4-10.2-17.6c-11.2-5-27-8.9-43.3-12.4
					c-17.2-3.7-35.3-7.2-53.3-10.6c-37.8-7.1-76.9-13.8-119.8-18c-43.3-4.3-89.2-6.4-134.4-8c-90.7-3.2-182.8-3.3-273.4,0.3
					c-87.1,3.4-174.1,10.1-255.3,20.1c-18,2.2-36.1,4.5-53.6,7.1c-8.1,1.2-16.2,2.2-24.6,3.3c-5,0.6-9.2,1-13.8,2c-4.5,1-9,2-13.3,3
					c-30.3,7.1-57,15.8-74.9,25.9c-5.6,3.2-10.4,6.6-10.6,10.2c-0.2,3.8,5.3,7,13.4,9.9c13.2,4.7,30.6,8.5,46.3,12.4
					c33.7,8.3,68,16.4,105.2,23.4c36.4,6.8,71.4,14.1,109.3,20.3c37.9,6.1,78,12,119.5,15.7c42.6,3.8,86.8,5.9,130.9,7.6
					c43.8,1.6,88.5,1.9,132.4,0.5c21.4-0.7,42.1-1.8,62.7-3.6c3-0.3,1.7-1.5-1.3-1.4c-42.8,2.3-86,4.1-129.6,3.8
					c-42.6-0.3-85.5-1.9-126.3-5.7C362,292,285.5,282.1,215,269c-17.2-3.2-34.9-6.4-50.5-10.2c-15.7-3.8-31.3-7.7-46.5-11.7
					c-31.4-8.2-62-16.6-92.4-25.1c-4.6-1.3-11.5-2.9-12.2-4.9c-0.9-2.5,5.2-5.3,9.2-7.4c8.5-4.4,18.5-8.5,30.1-12.3
					c11.6-3.8,24.3-7.2,38-10.3c4-0.9,9-1.7,12.6-2.8c2.9-0.8,5.2-1.9,8.1-2.7c6.6-2,13.8-3.5,21.7-5
					c67.3-12.9,147.8-19.8,225.9-24.6c86.2-5.3,174.8-7.2,262.7-5.7c43.6,0.7,87.1,2.7,129.8,5.4c42.7,2.7,83.8,6.6,121.9,13
					c36.7,6.1,69.8,13.7,102.7,21.4c24.2,5.7,61.1,13.3,49.8,23.5c-6,5.4-19.2,10.4-29.8,15.1c-10.8,4.8-22.2,9.4-34.3,13.9
					c-25,9.3-52.6,17.9-82.1,26c-29.2,8.1-59.3,16-92.2,22.8c-33.5,6.9-69.3,13-109.7,15.6c-20.2,1.3-40.7,1.7-61.3,1.2
					C615.7,304,615.5,304.4,616.4,304.5L616.4,304.5z"/>
			</g>
			<g id="XMLID_141_">
				<path id="XMLID_142_" fill="#CBA282" d="M514.8,294.1c72.4,2.5,145-2,210.4-11.2c32.4-4.5,63-10.1,92-16.3
					c28.9-6.2,56.5-12.8,80.8-20.5c23.8-7.5,49.1-15.4,67.1-24.3c18.8-9.3,26.7-20.7,1.5-29.6c-10.9-3.9-26.5-6.6-40.9-9.3
					c-15.3-2.8-31-5.5-46.9-8.1c-32.4-5.1-66.2-9.6-101-13.1c-33.8-3.5-69-6.3-104.5-7.7c-37.5-1.5-76.2-1.6-113.8-0.4
					c-20,0.6-39.3,2.3-59.2,3c-18.9,0.7-37.9,1-56.8,1.7c-37.2,1.4-74.3,3.3-110.5,6.3c-18.2,1.5-36.1,3.3-53.9,5.2
					c-15.3,1.6-29.9,3.9-45.2,5.5c-7.2,0.7-14.7,1.3-21.5,2.3c-7.4,1.1-14.5,2.3-21.6,3.6c-13.9,2.5-27.4,5.2-39.6,8.5
					c-23.1,6.1-43.5,13.3-59.3,21.1c-4,2-7.6,4-10.8,6.1c-1.8,1.2-4.1,2.4-5.3,3.6c-2.1,2.1,0.1,3.7,3.9,5.4
					c9.7,4.3,21,8.4,33.6,11.9c12.8,3.6,30.2,5.1,44.6,8c14.2,2.8,28.8,5.5,43.1,8.3c29.9,5.8,59.9,11.6,90.7,16.9
					c60.2,10.5,125,19.7,194.8,22.8c16.9,0.7,33,1,50.1,0.5c2-0.1,1.9-0.8,0-0.9c-34-1.2-67.6-2.6-100.3-5.6c-31.9-3-62.5-7-92-11.7
					c-30.4-4.8-59.6-10.1-88.3-15.7c-27.3-5.3-54.8-10.6-80.2-16.7c-7.2-1.7-13-3.5-18.8-5.6c-5.6-2.1-10.6-4.3-16.4-6.3
					c-11.8-4.1-24.3-7.6-34.2-12.2c0.6,1.3,1.1,2.6,1.7,3.9c8.3-5.8,19.7-11.4,32.6-16.4c13-5.1,28.7-9.2,43.9-13.7
					c15.7-4.6,34.2-8.1,50.8-12.3c8.6-2.2,18.3-3.7,28.4-5.2c11.7-1.7,23.6-3.4,35.9-4.8c50.6-5.5,105-8.1,158.4-9.8
					c13.1-0.4,26.1-0.8,39.2-1.1c13.8-0.3,28.1,0.2,41.9,0.5c28,0.6,56,0.2,83.8,1.2c50.5,1.9,99.8,4.7,147.8,9.7
					c47.8,5,93.3,11.8,136.1,19.7c15.8,2.9,38.1,6.4,41,12.2c3.2,6.4-11.7,13-24.1,17.9c-14.6,5.8-31.4,11.2-48.1,16.5
					c-17,5.4-34.1,10.8-51.9,16c-72,21.1-167.7,36.8-270.5,39.4c-13,0.3-25.9,0.4-38.9,0.3C514.1,293.8,514.2,294,514.8,294.1
					L514.8,294.1z"/>
			</g>
			<g id="XMLID_139_">
				<path id="XMLID_140_" fill="#CBA282" d="M500.3,282.1c25.9,0.4,52.1,0.3,77.8-0.7c26-1,51.8-2.7,77.3-4.5
					c25.5-1.8,51.6-4.5,74.5-8.3c23.8-3.9,46.2-8.4,67.5-13.4c41.3-9.7,77.3-21.5,104.9-34.7c9.1-4.4,16.2-9.2,12.7-14.4
					c-2.9-4.3-13.3-7.5-25.2-10c-11-2.3-23.9-3.9-36.1-5.5c-13.9-1.8-28-3.5-42.3-5.1c-56-6-114.1-8.8-173.5-9.9
					c-29.4-0.5-58.4-0.2-87.7,0.8c-29.5,1-58.5,2.7-87.7,4.2c-28.9,1.5-57.6,3.5-85.7,6c-27.4,2.4-55,4.9-81.6,8.1
					c-5.8,0.7-11.5,1.3-17.6,1.7c-7.2,0.5-14,1.4-20.7,2.3c-6,0.8-11.8,1.7-17.6,2.6c-6.7,1-13.5,1.8-19.3,3.3
					c-22.5,5.5-42,13.5-41.6,22.5c0.4,8.5,19.4,15.6,41,20.7c12.2,2.9,28.6,4.2,41.7,6.7c13,2.5,26.2,5,39.5,7.4
					c51.5,9.4,108.6,17.7,169.7,19.6c15.5,0.5,31.1,0.5,46.7,0.2c2.5-0.1,2.6-1.2,0-1.2c-60,1.3-121.3-4.4-172-13.7
					c-25-4.6-48.4-9.8-70.9-15.4c-11.2-2.8-20.1-5.9-29.6-9.2c-7.5-2.6-17.5-4.4-25-7.1c-7.3-2.6-11.5-5.3-9.4-8.7
					c2.4-3.8,10.2-7,17.7-10.1c3.1-1.3,6.7-2.5,10.4-3.6c4.5-1.4,8.6-2.8,12.9-4.2c8.4-2.8,19-4.7,29.2-6.8
					c5.2-1.1,9.6-2.3,15.3-3.2c5.5-0.8,11.3-1.5,17-2.3c12.8-1.6,25.9-3.1,39-4.5c26-2.7,53.3-4.6,80.2-6.3
					c27.2-1.7,54.1-2.8,81.9-3.1c27.7-0.3,55.1,0.1,82.8,0.5c54.4,0.8,106.9,3.5,159.3,7.8c25.3,2.1,50.3,4.6,74.3,7.8
					c12.3,1.6,24.8,3.2,36.3,5.3c7.3,1.3,14.8,2.8,14.2,5.3c-0.9,3.4-10.3,6.8-16.5,9.6c-6.3,2.8-13,5.6-20.2,8.3
					c-15,5.6-31.7,10.8-49.6,15.6c-17.7,4.7-36.6,9-56.7,12.9c-10.3,2-20.9,3.8-31.7,5.6c-10.4,1.7-20.3,3.7-30.8,5.3
					c-21.6,3.4-43.1,6.7-66.5,8.9c-23.3,2.2-47.2,3.9-71.4,5.1c-12.3,0.6-24.7,1-37.2,1.3C499.5,281.7,499.5,282.1,500.3,282.1
					L500.3,282.1z"/>
			</g>
			<g id="XMLID_135_">
				<path id="XMLID_136_" fill="#CBA282" d="M464.1,267.2c45.1-0.5,90-2.7,133.6-6.2c21.6-1.7,43.3-3.7,64.3-6
					c22.4-2.4,42.8-5.8,62.6-9.6c37.8-7.3,75.3-16,104.8-26.1c9-3.1,15.1-6.7,12-10.9c-2.5-3.3-11.1-5.9-20.6-7.7
					c-18.9-3.6-42.6-4.5-64.4-5.4c-23-0.9-46-1.5-69.2-1.7c-23.4-0.2-46.7-1.1-70.2-1.3c-45.8-0.3-91.7,0.9-136.6,3.5
					c-45.4,2.6-90.7,6.6-133.7,11.7c-21.6,2.5-42.7,5.4-63.1,8.7c-4.6,0.7-9.1,1.6-13.8,2.3c-4.9,0.7-10.5,0.9-15.5,1.5
					c-12.4,1.5-21.8,3.9-25,7.9c-6.1,7.5,15.5,13.6,36.1,16.7c11.5,1.7,23.8,3,35.3,4.7c11.9,1.8,24,3.4,36.1,5
					c23.4,3.1,47.4,5.8,71.5,8.3c23.7,2.5,48.9,4.5,74.2,4.5c11.8,0,23.1-0.5,34.3-1.6c1.3-0.1,0.8-0.7-0.6-0.6
					c-49.3,3-97.4-3-140.6-9.5c-21.6-3.2-42.7-6.7-63.3-10.5c-17-3.1-34.9-7.1-46.1-12c-4.6-2-4-3.1-0.4-5.3c4-2.4,9.6-4.5,17.4-5.9
					c18-3.4,36.7-6.5,55.8-9.4c38.6-5.7,78.7-9.9,120.8-12.7c42-2.8,84.8-4.3,127.8-4.5c21.1-0.1,42.2,0.1,63.2,0.6
					c22,0.5,42.6,1.9,63.7,3.8c20,1.8,39.5,4,58.8,6.4c9.2,1.1,18.8,1.7,26.5,3c1.7,0.3,3.5,0.6,5,0.9c-1.6-0.4,3.5,0.9,2,0.6
					c0.6,0.2,1.3,0.4,0.6,0.7c-4.8,2.2-11.8,4.1-18.1,5.9c-7.3,2.1-14.8,4.2-22.5,6.3c-14.9,3.9-30.6,7.6-47,10.9
					c-17.3,3.6-35.7,6.6-53.4,9.9c-17.6,3.4-35.3,6.7-54.1,9.5c-37.5,5.5-77.1,9.5-118.1,12c-10.1,0.6-20.2,1.1-30.3,1.6
					C463.7,267.1,463.7,267.2,464.1,267.2L464.1,267.2z"/>
			</g>
			<g id="XMLID_133_">
				<path id="XMLID_134_" fill="#CBA282" d="M444.5,245c29.2,2.1,59.4,1.4,88.5-0.5c27-1.8,53.5-4.1,79.3-7.1
					c5.2-0.6,10.6-1.6,16-1.9c3.2-0.2,7-0.1,10.4-0.5c3.9-0.5,7.4-1.4,10.6-2.2c10.4-2.5,19.5-5.5,26.9-8.9
					c8.1-3.6,14.5-8.1,8.3-12.4c-6.4-4.4-25-6.2-39.8-7c-14.6-0.8-29.3,0-44-0.4c-14.1-0.4-29-0.9-42.9-0.1
					c-14.8,0.8-29.7,1.4-44.5,2.3c-14.7,0.8-29.2,1.9-43.7,2.9c-14.9,1-29.8,2.5-44.9,3.1c-12.9,0.5-25.7,1.2-38.5,1.7
					c-13.2,0.5-27.3,1.7-38.4,3.9c-11.3,2.2-25.6,5.8-29.4,9.8c-5.2,5.5,14.8,9.6,28.8,12.1c13.4,2.4,28.4,3.8,43.8,4.6
					c30,1.6,59.9,2.3,90.2,0.9c1.5-0.1,1.1-0.8-0.3-0.8c-24.5,0.3-47.9-0.9-70.5-3.7c-10.1-1.3-19.5-3.3-28-5.3
					c-9.3-2.1-19.1-4.1-28.2-6.4c-3.7-0.9-5.4-2.2-4.3,0.1c1.1,2.1,0.8,1.3,3.6,0.4c3.1-1.1,6.7-2,10.5-2.9c9-2,18.4-3.7,27.5-5.7
					c19.5-4.1,43.4-6.4,66.3-8.2c25.1-2,50.3-3.4,76.3-4.1c13.1-0.3,25.6,0.2,38.7,0.2c12.3,0,24.8,0,36.6,1.1
					c6,0.5,10.7,1.5,16.1,2.4c5.6,0.9,11.9,1.7,17.8,2.5c2.5,0.3,5,0.6,7.5,0.9c0.5,0.1,3.7,0.5,3.7,0.5c-0.2,0.1-1.6-1.1-1-0.4
					c-0.8-0.9-0.7-0.5-1.3,0c-0.8,0.6-1.5,1.1-2.7,1.7c-5.1,2.6-11.7,4.9-19.2,7c-4.1,1.1-9.8,2.1-12.7,3.5
					c-1.2,0.6-2.3,1.8-2.9,2.1c-0.5,0.2-3.9,1-5.5,1.4c-19.9,4.8-45.6,8.2-70.1,10.5c-30.5,2.8-62.5,4.4-94.3,2.7
					C444.1,244.6,443.7,244.9,444.5,245L444.5,245z"/>
			</g>
			<g id="XMLID_131_">
				<path id="XMLID_132_" fill="#CBA282" d="M446.8,232.3c11.1,1.4,22.6,2.3,34.4,3.1c12.2,0.8,24.8,1.6,37.3,1.6
					c14-0.1,27.8-1.9,39.9-3.8c13.2-2.1,28.8-5.8,20.6-10.7c-3.8-2.3-10.4-3.4-19.1-3.5c-5.7-0.1-11,0.5-16.8,0.5
					c-13,0-25.8-0.2-38.8,0c-12.6,0.2-25.4,0.8-37.4,2c-12.4,1.2-23.7,3.1-35.7,4.4c-3.8,0.4-5.1,1.4-3.5,2.5
					c3.9,2.6,13.5,4.6,22.3,5.8c7.6,1,18.3,2.2,26.6,1.5c1.3-0.1,2.1-0.7,0.9-1c-6.2-1.6-14.8-2.2-21.5-3.7c-7-1.6-13-3.5-20.4-4.9
					c0.4,0.9,0.8,1.8,1.2,2.7c15.2-3.7,39.9-5.1,59-5.7c9.9-0.3,19.7-0.3,29.5,0.1c9.6,0.4,17.6,1.2,23.8,3.4
					c-1.3-0.7-2.6-1.3-3.9-2c0.4,0.2,0.7,0.5,0.9,0.8c0.1-0.6,0.1-0.6-0.2,0.2c0.8-0.9,1.6-1.7,2.4-2.6c-2,1.2-14.9,2.8-20.4,3.5
					c-8.4,1.1-16.3,2.1-24.4,3.4c-18,2.7-36.3,3.2-56.2,2.3C446.6,231.8,445.8,232.2,446.8,232.3L446.8,232.3z"/>
			</g>
			<g id="XMLID_129_">
				<path id="XMLID_130_" fill="#CBA282" d="M548.7,318c74.2-0.5,148.9-1.4,221.8-5.8c36.5-2.2,72.7-5.3,106.8-9.8
					c33.5-4.3,64.2-10.4,92.1-17.3c55.9-13.8,95.6-31.7,131.8-50c8-4.1,16.3-8.1,25.4-12c8.7-3.7,18.9-7,29.4-10.3
					c26-8.2,64-9.1,99.7-10.5c96.6-3.8,194.3-4.9,290.8-8.8c1.5-0.1,1.1-0.8-0.3-0.8c-87.1,0.5-174.1,2.9-261.1,4.3
					c-40,0.7-81.9-0.7-119.6,4.1c-15,1.9-30,4.5-41.7,7.9c-11.7,3.4-21.8,7.3-31.1,11.2c-18.9,8.1-33.6,16.9-51.6,25.1
					c-19.3,8.8-40.7,17.3-65.2,25c-24.6,7.7-51.2,14.8-81.6,20.4c-30.6,5.7-63,10.4-97.2,13.9c-79.9,8.1-164.6,10.7-248.3,12.9
					C547.7,317.6,547.7,318,548.7,318L548.7,318z"/>
			</g>
			<g id="XMLID_127_">
				<path id="XMLID_128_" fill="#CBA282" d="M1496.4,214.9c-67.6-3.4-140.4-5-207.7-0.4c-32.3,2.2-63.3,6-90.6,11.5
					c-14.1,2.9-27.9,5.9-40.3,9.4c-13.5,3.9-24.9,8.2-36.3,12.6c-23.1,8.9-44.3,18.2-70.2,26.5c-23.7,7.5-49.7,14.5-77.5,20.7
					c-55.4,12.4-119.7,22-185.8,28.3c-147.5,14.1-310.1,9.5-452.1-7.6c-75.2-9.1-143.4-21.5-210.1-35
					c-33.4-6.8-66.9-13.6-103.5-18.9c-37.5-5.4-76.5-8.7-117.8-10.4c-86.1-3.5-174.2-2.5-260.9-1.7c-90.1,0.8-180,2.8-269.7,5
					c-21.1,0.5-42,1.1-62.9,2c-1.6,0.1-1.2,0.8,0.4,0.8c45.3-0.3,90.6-1.6,135.8-2.4c44.6-0.8,89.2-1.5,133.8-2
					c88.4-0.9,177.2-0.8,265.2,2.1c42,1.4,83.2,4.1,123,8.2c38.5,4,74,10.3,108.4,16.6c33.8,6.2,67,12.7,102,18.3
					c34.7,5.6,70.5,10.7,107.2,15.1c72.9,8.9,150.3,15.7,228.5,19.1c73.1,3.1,147.3,4,220.3,0.3c68.7-3.5,138.2-9.6,198.4-20
					c60.5-10.5,112.9-24.1,152.3-41.2c21.8-9.5,39.3-19.8,64.5-28.6c23.9-8.3,52.3-14.5,87.1-18.3c32.1-3.5,65-5.1,98.7-6.7
					c35.4-1.7,71.5-2.3,107.3-2.6c17.4-0.1,34.7-0.3,52.1-0.5C1496.9,215.2,1497.1,214.9,1496.4,214.9L1496.4,214.9z"/>
			</g>
			<g id="XMLID_125_">
				<path id="XMLID_126_" fill="#CBA282" d="M557.8,317c-91.5,2.4-183.1-4.8-264.9-16.5c-41.7-6-81-13.2-118.3-21.2
					c-18.5-4-36.6-8.2-54.4-12.4c-18.1-4.3-35.1-9-52.8-13.4c-35-8.8-69-18-104.8-26.5c-18.4-4.4-37.9-8.5-61.1-10.4
					c-22.3-1.8-46.1-1.7-69-1.7c-50.7,0.1-101.2,1-151.7,2.1c-50,1.1-100.1,2.2-150.1,3.6c-99.2,2.6-198.1,6.3-296.5,10.9
					c-12.5,0.6-24.9,1.2-37.3,1.8c-1,0-0.8,0.6,0.2,0.5c99.2-3.7,198.8-6.3,298.7-8c49.9-0.8,100-1.6,150-1.6
					c50.1,0,100.2,0.6,150.3,0.6c24.1,0,48.5-0.2,72.5,0.4c21.3,0.5,40.4,2.6,58.1,6.1c18.6,3.7,35.6,8.1,53.1,12.2
					c18,4.2,36.3,8.3,54.5,12.4c36.7,8.3,74.3,16.3,112.9,23.9c38.1,7.5,77.6,14.5,118.7,20.4c79.9,11.6,168.1,19.2,257.9,18
					c11.4-0.2,22.7-0.5,34-0.9C558.4,317.3,558.4,317,557.8,317L557.8,317z"/>
			</g>
			<g id="XMLID_123_">
				<path id="XMLID_124_" fill="#CBA282" d="M1470.3,227.6c-67.4-3.6-138.5,0.9-200.4,8.9c-16,2.1-32.3,4-47,6.8
					c-14.5,2.8-28.4,5.9-41.5,9.2c-27.5,7-48.9,15.7-69.8,24.4c-20.8,8.7-42.5,17.3-68.7,24.7c-28,7.9-61.6,12.9-96.5,17.6
					c-77.3,10.5-161.7,17.5-245.8,21.4c-83.1,3.9-168,5.2-251.7,2.2c-78.4-2.8-157.5-10.6-226.1-22
					c-67.2-11.2-123.5-27.1-190.3-38.4c-67.7-11.5-144.9-15.1-222.1-16c-79.8-0.9-160.1,0.7-239.9,1.3
					c-89.2,0.7-179.8,1.2-268.2,4.9c-21.6,0.9-43.2,1.9-64.7,2.8c-4.8,0.2-3.5,2.4,1.1,2.4c45,0.4,89.8,0.9,134.9,0.5
					c44.3-0.4,88.5-0.5,132.8-0.9c82.4-0.7,164.9-1.5,247.3-1.7c77-0.2,156.1,0.7,228.3,9.4c70.5,8.5,127.9,23.7,192.2,35.2
					c66.7,12,142,19.5,219,23.2c79.8,3.9,160.7,4.6,241.2,2.2c84.6-2.5,168.5-7.8,250.5-14.3c39.4-3.1,78.1-5.3,115-10.7
					c33.2-4.9,61.2-12.1,85.1-20.4c46.4-16,82-34.7,137.8-48.3c27.9-6.8,57.4-12.9,91.4-16.8c33.1-3.8,68.3-6.2,103.8-7
					c17.3-0.4,34.9-0.5,52.2-0.4C1471.1,228.2,1471.4,227.7,1470.3,227.6L1470.3,227.6z"/>
			</g>
			<g id="XMLID_121_">
				<path id="XMLID_122_" fill="#CBA282" d="M1487.3,175.9c-88.8,1.7-177.6,3.6-266.5,5.2c-42,0.8-84.9,1.8-125.9-1.7
					c-32.2-2.8-62.2-7.9-88.2-14c-54.3-12.8-105.6-26.7-172.5-33.6c-19.3-2-39.1-3.5-59.5-4.1c-19.6-0.6-39.4-0.4-59.1-0.6
					c-41.5-0.5-83.2,0-124.7,0.3c-87.3,0.7-174.1,0.4-261.2,2.7c-77.6,2.1-153.9,6.7-227.6,14.2C29.3,151.5-34.6,163.1-91,178.4
					c-27.1,7.4-54.4,14.9-90.3,18.3c-19.4,1.8-39.8,3.5-60.1,4c-19.9,0.5-40,0.7-60,0.6c-88.6-0.4-177.2-0.8-265.8,0.1
					c-89.4,0.9-178.6,2.9-267.5,6c-20.7,0.7-41,1.6-61.4,2.8c-2.7,0.2-2.1,1.5,0.7,1.4c44.5-0.7,88.8-2.6,133.3-3.7
					c43.7-1.1,87.6-2,131.4-2.6c88.3-1.3,177.5-1.9,265.8-0.6c42.6,0.7,85.1,2.4,127.7,2.8c19.8,0.2,39.2,0.5,58.6-0.9
					c19-1.4,37.1-3.9,53.4-7.1c31-6,56.7-14.1,84.8-21.1c28.8-7.3,60.4-13.3,93.3-18.9c66.6-11.2,137.8-18.4,213-22.8
					c86.5-5,174.3-6.1,262.3-6.2c43.2,0,86.3,0.7,129.5,1.4c20,0.3,40,0.7,59.9,1.4c20.1,0.7,39.4,2.3,58.8,3.9
					c19.7,1.6,39.4,2.9,58.5,5.1c16.1,1.9,31.4,4.3,46.2,7c29.2,5.2,55.3,11.7,83.7,17.3c27.3,5.3,55.7,10.5,85.9,14.3
					c34.8,4.3,71.3,5.6,108.8,5.1c43.1-0.6,86.1-2.5,129-3.8c44.4-1.4,88.8-2.7,133.2-4.1c21.8-0.7,43.6-1.3,65.4-2
					C1487.8,176.1,1487.8,175.9,1487.3,175.9L1487.3,175.9z"/>
			</g>
			<g id="XMLID_119_">
				<path id="XMLID_120_" fill="#CBA282" d="M1504,158.6c-152.8,3.9-321.5,6.8-457-18.2c-34.6-6.4-67.6-13.4-105-18.4
					c-35.6-4.7-73.8-7.4-112.5-8.8c-80.4-3-160.8-2.5-241.7-2.1c-90.8,0.4-181.5,1.9-271.9,4.3c-84.5,2.3-170.8,4.2-253.7,9.8
					c-39.2,2.6-78.2,6.2-114.6,11.2c-37.4,5.2-72,12-106.9,18.4c-34,6.3-69.8,11.9-107.9,15.7c-37.4,3.8-76.3,6.1-115.5,7.5
					c-39.9,1.4-79.7,1.5-119.7,2c-42,0.5-83.7,0.7-125.8,0.6c-89.2-0.4-178.4-2.4-267.5,0.3c-20.9,0.6-41.4,1.6-61.8,3
					c-1.8,0.1-1.4,1,0.4,1c89.1-3.2,177.2-2.9,266.6-1.1c84.4,1.7,167.6,6.1,252.4,4.9c79.1-1.1,157.4-5.8,230-15.1
					c75.7-9.8,134-28,210-37.7c38.2-4.9,79.4-7.7,120.2-9.9c43.3-2.4,87.1-4.2,130.8-5.7c90.2-3,180.8-5,271.6-6
					c83.9-0.9,169.2-1.4,252.3,2.5c79,3.8,153.1,13.1,219.7,25.9c33.8,6.5,67.5,12.7,105.4,17.1c35.5,4.1,73.9,6.7,111.9,7.4
					c19.3,0.4,38.7,0.7,58.1,0.7c20,0,39.1-0.5,59-1.1c38.7-1.1,77.1-2.6,115.3-4.5c19.3-1,38.6-2,57.8-3
					C1505.2,159.1,1505,158.6,1504,158.6L1504,158.6z"/>
			</g>
			<g id="XMLID_117_">
				<path id="XMLID_118_" fill="#CBA282" d="M401.1,97c45.4,1.1,90.9,1.7,136.3,2.5c44.9,0.7,89.8,1.7,134.8,2.6
					c82.1,1.6,165.4,2.9,245.1,9.4c40,3.3,77.5,8.2,114.4,13.8c37.8,5.7,75.4,11.5,115.9,15.6c78.8,7.8,163.8,10.1,246.5,8.7
					c49.5-0.8,99.6-2.5,147.6-6.2c47.9-3.7,94.9-8.2,142-12.7c2.8-0.3,1.6-1.4-1.2-1.3c-43.4,2.1-86.8,3.9-130.5,5.4
					c-43.3,1.5-86.5,3.3-129.9,4.4c-82.1,1.9-165.7,0.8-245-6c-80.9-7-150.2-21.8-230.4-29.2c-79.4-7.3-164.5-9.1-247.3-8.8
					c-48.6,0.2-97.2,0.7-145.8,0.9c-50.8,0.1-101.6,0.2-152.5,0.7C400.5,96.8,400.5,97,401.1,97L401.1,97z"/>
			</g>
			<g id="XMLID_115_">
				<path id="XMLID_116_" fill="#CBA282" d="M1609,117.4c-12.6,0.5-25.2,0.8-37.6,1.5c-12.7,0.7-25.5,1.4-38.3,2.1
					c-26.5,1.4-53.1,2.6-79.8,3.5c-51.9,1.8-103.9,2.4-156.1,1.1c-44.6-1.1-88.8-3.8-131.2-7.9c-41.4-4-81.3-8.8-118.2-15.7
					c-17.9-3.3-34.8-7.1-50.6-11.3c-14.7-3.9-31.4-8.3-38.9-13.8c-6.8-5-3.6-10.2,5.6-14.9c10.3-5.3,26.4-8.9,44.6-11.7
					c20.2-3,42.4-4.7,64.3-6.4c24.4-1.9,48.9-3.5,73.6-5c49.7-2.9,99.9-5,150.4-6.2c101.6-2.4,203.7-1.9,305.4-0.3
					c12.4,0.2,24.9,0.4,37.3,0.7c2.9,0.1,3.3-1.2,0.7-1.4c-51.7-4.3-103.9-7.5-157.5-8.8c-52.9-1.3-106.3-1.8-159.3-0.8
					c-54.1,0.9-108.1,2.8-161.4,5.6c-26.2,1.4-52.2,3-78,4.8c-24.1,1.7-48.5,3.4-71.6,6.1C966.8,44.1,925.8,53.9,920,69
					c-5.5,14.3,35.4,25.6,70.4,33.6c37.4,8.6,78.9,15.2,123.3,20.1c43.3,4.8,89.4,7.1,135.5,8.1c107.9,2.2,216.3-2.5,321.4-9.4
					c13.1-0.9,25.8-2.2,38.6-3.4C1610.1,117.8,1610,117.4,1609,117.4L1609,117.4z"/>
			</g>
			<g id="XMLID_113_">
				<path id="XMLID_114_" fill="#CBA282" d="M1573,108.1c-43.1,0.4-86,1.6-129,2.5c-22,0.5-43.9,0.8-65.9,0.8
					c-10.5,0-21.1-0.1-31.6-0.2c-9.9-0.1-19.2-0.9-29-1.2c-66.7-2.2-138.7-6.6-191.4-19.6c-12.8-3.1-23.4-6.4-30.9-10.8
					c-5.9-3.4-8.9-7.1-4.5-10.3c-1,0.7,1.7-0.9,1.6-0.8c2.8-1.4-0.6,0.1,1.4-0.6c2.2-0.8,4.3-1.3,7.2-1.8c6.6-1.2,13.9-1.7,21.7-2.2
					c19.3-1.1,39.1-1.7,58.6-2.3c43.3-1.5,86.4-3.3,129.8-4.6c43.4-1.3,86.7-2.1,130.2-2.4c97.5-0.6,194.6,0.9,291.8,3
					c1.8,0,2.3-0.9,0.4-1c-89.8-4.4-181-6.3-272-7c-46.3-0.3-92.7-0.4-139-0.2c-45.2,0.2-90.7,0.4-135.6,1.8
					c-22.7,0.7-45.5,1.5-68,2.6c-17.8,0.9-36.6,2.6-49.2,6.7c-27.1,8.7-15,21.3,7,29.8c22.4,8.6,55.9,15,89.4,19.4
					c34.8,4.5,73.2,7.5,111.2,8.1c11,0.2,22.1,0.3,33.1,0.2c4.7,0,9.5,0,14.2-0.1c6.4-0.2,12.6-0.8,19.1-0.9
					c25-0.5,49.7-1.6,74.6-2.5c51.6-1.8,103-4.3,154.8-5.6C1574,108.5,1574.1,108,1573,108.1L1573,108.1z"/>
			</g>
			<g id="XMLID_111_">
				<path id="XMLID_112_" fill="#CBA282" d="M1558.5,90.2c-45.2-0.4-90.7,1.4-135.9,0.4c-19-0.4-38.7-1.3-57.1-2.7
					c-17.7-1.4-36-2.8-52.9-4.9c-7.7-1-15.2-2.2-22.2-3.5c-0.9-0.2-8.6-2.1-9.2-2c4.6-0.4,1,3.2,0.7,3c-1.2,0.2-0.8,0.1,1-0.2
					c1.1-0.2,2.3-0.4,3.5-0.6c1.3-0.2,8.7-0.7,12-1c5.4-0.4,10.7-0.9,16.1-1.3c11.7-0.9,23.4-1.7,35.1-2.5
					c43.7-3,88.4-5.2,133.2-6.2c50.5-1.1,101.8-1.2,152.3,0.1c3.3,0.1,3.9-1.5,0.8-1.7c-48.5-3.3-97.7-5.2-147.5-5.5
					c-50.6-0.3-100.9,1-150.6,3.7c-12.3,0.7-24.5,1.5-36.6,2.5c-11.4,0.9-23.7,1.6-34.2,3.3c-10.2,1.6-18.9,4.6-18.5,8.1
					c0.5,4.2,11.7,6.5,22.3,8.6c17.6,3.5,38,6,58.9,7.1c21.5,1.2,43.6,0.9,65.2,0.1c24.4-0.9,49-1.6,73.6-2.2
					c30-0.8,60.1-1.1,89.9-2.3C1559.4,90.6,1559.5,90.2,1558.5,90.2L1558.5,90.2z"/>
			</g>
			<g id="XMLID_109_">
				<path id="XMLID_110_" fill="#CBA282" d="M484.7,99.5c-86.3-2.3-172.9-4.4-259.6-4.4c-85,0-169.8,2.5-250.9,10.4
					c-38.8,3.8-76.2,8.7-112.4,14.2c-34.8,5.3-68.2,11.5-102,17.3c-67.3,11.7-138.8,23.2-216.9,26.9c-51.6,2.5-104.4,2.6-156.3,4.1
					c-52.9,1.6-105.8,3.1-158.5,5c-2.8,0.1-3,1.3,0,1.3c48,0.1,95.9-0.1,143.9-0.3c46.5-0.2,93.5-0.4,139.8-1.8
					c41.5-1.3,82.2-3.9,121.5-8.1c36.8-4,72-9,106.2-14.6c34.4-5.6,68.1-11.5,102.6-17c34.3-5.5,68.5-11.1,104.9-15.3
					c39.7-4.6,80.8-8,122.6-10.5c41.8-2.5,83.7-4.6,126.2-5.7c96.2-2.6,192.5-1.9,288.9-0.9C486,100.1,485.9,99.6,484.7,99.5
					L484.7,99.5z"/>
			</g>
			<g id="XMLID_107_">
				<path id="XMLID_108_" fill="#CBA282" d="M1510.8,11.9c-78.6-2.4-158.7-3.1-237.7-2.7c-77.7,0.4-156.7,1.6-232.3,7.4
					c-37.7,2.9-74.5,6.7-110,11.4c-37.2,4.9-71.3,11.2-105.1,17.9c-35.1,6.9-70.7,13.5-111.7,16.9c-42.2,3.5-86.1,4.8-129.7,6
					c-45.8,1.2-91.6,2.3-137.5,3c-46.8,0.7-93.4,0.8-140.3,0.8c-88.4,0.1-177.1,0.1-265.3,2.2c-82.5,1.9-166.2,6.2-244.3,14.4
					c-80.9,8.5-151.6,21.9-224.6,34.8c-35.7,6.3-72.4,12.3-111.4,16.6c-39,4.4-79.6,7.5-120.6,9.8c-82.1,4.5-167.2,6-250.5,7.2
					c-20.8,0.3-41.5,0.6-62.3,0.8c-5.3,0.1-5.2,2.3,0,2.4c83.5,1.9,168,4.2,251.7,1.8c83.1-2.4,164.3-7.8,239.7-18.5
					c76.8-10.9,144.9-26.4,221.7-37.4C-184.6,96-103,89.2-21.2,85c177.1-9.1,357.9-7.5,536.9-7.1c85.3,0.2,177.9-1.3,257-11.6
					c39.3-5.1,73.2-12.9,109.5-19.5c33.2-6,68.5-11.1,105-15.1c35.8-3.9,72.8-7,110.1-9.4c38.6-2.5,77.8-5,117.2-6.2
					c79-2.4,158.5-2.8,237.9-2.6c19.5,0,39,0,58.5-0.1C1513.9,13.3,1513.8,12,1510.8,11.9L1510.8,11.9z"/>
			</g>
			<g id="XMLID_105_">
				<path id="XMLID_106_" fill="#CBA282" d="M1530.4,2c-84.9-3.5-169.8-6.6-255.5-7.6c-84.9-1-172.2-0.7-256.1,3.6
					c-42.4,2.2-84.7,5.3-125.7,9.1c-41,3.8-80.4,9-119.9,13.9c-39.8,5-79.7,9.9-121.2,13.5c-38.1,3.3-77.2,5.7-116.5,7.5
					c-161.1,7.2-324.7,4.4-486.9,7.2c-79.8,1.4-159.7,4.4-236.7,10.9c-80.6,6.8-153.6,18.2-226,30.4c-36.5,6.2-72.9,12.4-110.8,17.8
					c-38.6,5.5-78.9,10-119.8,13.7c-81.4,7.5-166.4,11-251.6,10.8c-20.8-0.1-41.7-0.3-62.4-0.8c-1.5,0-1.8,0.7-0.3,0.8
					c165.5,7.8,335.5-0.5,484.8-22.5c75.8-11.2,146.9-25.3,225.9-34.6c74.4-8.7,153.5-13.4,233-15.8c162-4.9,325.2-1.6,487.3-6
					c80.4-2.2,160.5-6.8,236.3-15c81.5-8.9,158.1-21.7,242.2-28.5c82.9-6.7,169.7-9.8,255.5-10.5c86.8-0.7,173.4,1,260.1,2
					c21.4,0.3,42.7,0.6,64.1,0.9C1531.5,2.8,1531.9,2.1,1530.4,2L1530.4,2z"/>
			</g>
			<g id="XMLID_102_">
				<path id="XMLID_104_" fill="#CBA282" d="M-895.6,109c41.1,1.1,82.2,2.1,123.5,2.2c41.2,0.1,81.7,0.2,122.1-2.5
					c39.8-2.6,75.7-7.7,108.9-14.6c33.5-6.9,63.9-15,97-22.1c33.5-7.1,69.6-12.5,109.4-16c40.2-3.5,81.8-5.2,123.3-6.8
					c93.2-3.6,186-8,279.7-10.4c95-2.4,189.8-3.5,285.1-3.1c45.3,0.2,90.5,1.2,135.8,1.1c44.1-0.1,88.2-2.8,129.9-6.9
					c81-8,153-22.3,230.5-32.7c76.4-10.2,156.5-17.3,238.2-22.7c166.9-11,337.9-13.7,508.4-10.7c21,0.4,42,0.8,62.9,1.3
					c2.4,0.1,3-1.1,0.6-1.2c-166.8-6.7-338.2-9.4-505.7-2.8c-83.7,3.3-166.1,9.4-245.3,18C828.5-12,755,0.5,678.4,11.6
					c-37.7,5.5-76.7,10.6-117.3,13.9c-44.3,3.6-91.3,5.6-137.2,6.3c-46.8,0.7-93.5,0.2-140.4,0.4c-47.3,0.2-94.6,0.7-141.8,1.4
					C46.5,34.8-48.6,36.7-143.9,38c-84.8,1.2-171.4,3.5-249.8,13.8c-75.4,9.9-128.7,29.1-200.4,40.7c-73.6,11.8-157,15.7-239.8,15.9
					c-20.5,0.1-41.1,0-61.6-0.1C-897.2,108.2-897.2,108.9-895.6,109L-895.6,109z"/>
			</g>
			<g id="XMLID_100_">
				<path id="XMLID_101_" fill="#CBA282" d="M1622.5-59.3c-95.6-1.8-191.1-3.3-286.9-3.7c-93.6-0.4-190,0.4-282.2,5.5
					c-91.2,5.1-177.8,14.2-262.1,25.5C710.5-21.1,632.5-8.4,550.7,1.8C469.2,12,384.6,19,296,20.9c-88.7,1.9-177.7,0-266.2-1.8
					c-172.3-3.5-353.8-6.9-510.2,18.6c-40.8,6.7-78.9,14.6-118.9,21.6c-39.1,6.9-80.1,12.4-124,16.1c-88.3,7.4-181.4,7.9-272.6,7.1
					c-23-0.2-46-0.5-68.9-0.8c-2.5,0-2.4,1.1,0,1.1c90.7,2.7,182.3,5.4,273.4,2.8c44.5-1.3,88.6-3.7,130.9-8
					c42.9-4.4,82.3-11,120.6-18c39.1-7.2,77.9-14.6,120.5-19.9c39.7-4.9,81.6-8.3,124.1-10.4c85.8-4.2,173.8-3.3,260.2-1.8
					c88.9,1.6,177.7,4.1,266.8,3.8c88.4-0.3,175.3-3.9,259.1-12.4c169.4-17,318.8-47.9,491.3-62.6c185.4-15.8,376.6-17.3,568.2-15.9
					c24,0.2,48.1,0.4,72.1,0.6C1623.9-58.7,1623.8-59.3,1622.5-59.3L1622.5-59.3z"/>
			</g>
			<g id="XMLID_98_">
				<path id="XMLID_99_" fill="#CBA282" d="M-919.3,55.8c84.4-0.7,168.5-2,251.9-6.2c40.9-2.1,82.4-5.4,120.3-10.5
					c37.3-5,73.1-10.9,109.4-16.5c35.5-5.4,71.5-10.7,109.6-14.3c39.7-3.8,81-5.9,122.6-6.6c84-1.4,167.9,1.9,251.3,4.5
					c84.3,2.7,168.9,4.5,253.3,1C385.8,3.7,469-4.9,550.4-14c159-17.9,314.4-38.5,481.6-49c175.8-11.1,360.6-12,539.1-7.1
					c22.1,0.6,44.1,1.3,66.1,2.1c1.8,0.1,2.2-0.8,0.4-0.9c-176.7-9-356.9-12.4-535.1-5.6c-171.3,6.5-330.9,25-491,43.2
					C531.3-22.3,450.6-13,367-6.9C282.4-0.8,197.6,0,111-2.1c-84.2-2-167.9-6-252.5-6.7C-225.6-9.4-307.6-6-385.2,3.8
					c-74.4,9.4-142.4,22.7-216.1,32.6c-80.6,10.8-167,14.8-254.6,17.3c-21.1,0.6-42.3,1.1-63.4,1.6
					C-920.4,55.3-920.4,55.8-919.3,55.8L-919.3,55.8z"/>
			</g>
			<g id="XMLID_95_">
				<path id="XMLID_96_" fill="#CBA282" d="M581.1-39.7c-52.7,4.5-106.3,8.3-160.2,11.5c-53.6,3.1-107.6,5-162.1,6.1
					c-54.7,1-109.8,1.4-164.7,0.8c-56.3-0.5-112.3-2.2-168.3-4c-108.5-3.6-219-6.9-327.3-0.9c-51.6,2.8-100.9,8.1-146.5,15.7
					c-22.6,3.8-44.5,7.9-68,11.2c-23.1,3.2-48.1,5.2-73.2,6.5c-52.7,2.7-107.2,2.2-160.4,1.7c-28.7-0.2-57.4-0.6-86.2-0.8
					c-28.6-0.2-57.4-0.8-86-0.5c-14.7,0.1-29.1,0-43.7,0.3c-5.6,0.1-7.1,2.4-1.4,3c27.6,2.5,56.6,3.8,85.2,4.9
					c28.6,1.2,57.7,2.1,86.5,2.6c55.1,0.9,111.2,1.7,166.3,0.5c54.6-1.2,105.9-5.1,153.9-12.9c23.1-3.8,45.4-8,69.1-11.5
					c22.8-3.3,46.8-5.9,71.3-7.9c104.2-8.5,213.9-6.1,320.1-2.8c57.1,1.8,114.1,3.7,171.5,4.4c27.5,0.4,55.7,0.7,83.2,0.3
					c27.3-0.5,54.9-0.4,82-1.4C331-17,440.6-22.7,543.3-34.1c13-1.4,26-3,38.9-4.5C584.4-38.9,583.6-39.9,581.1-39.7L581.1-39.7z"/>
			</g>
			<g id="XMLID_93_">
				<path id="XMLID_94_" fill="#CBA282" d="M-254.6-39.1c48.1,1.2,96.4,2,144.6,2.3c48.2,0.3,96.4-0.1,144.7-0.1
					c24.1,0,48.1-0.1,72.2-0.3c24-0.2,48.1-0.3,71.9-1.2c41.2-1.4,82.3-3.1,123-5.6c74.4-4.6,148.2-12.2,208.8-26
					c14.5-3.3,28.1-6.9,40.4-11c14.2-4.7,28.8-9.9,31.1-16.3c2.4-6.9-13.3-12-33-15c-19.8-3-41.1-5.3-62.3-7.2
					c-87.2-7.7-180.6-7.9-270.9-8.5c-24.4-0.2-49.2,0.5-73.7,0.8c-24.6,0.3-49.1,0.8-73.7,1c-49.1,0.4-98.2,1-147.3,1.6
					c-88.8,1.1-178.5,2.5-265.9,7.6c-42.6,2.5-85.2,5.6-125.6,10.3c-18.8,2.2-37.4,4.1-54.1,7.5c-16.4,3.4-30.3,7.6-37.1,13.2
					c-14.6,12.1,15.3,24.6,49.8,30.4c18.7,3.1,39.7,5,60.5,6.5c22.9,1.7,45.8,3.2,69.1,4.2c11.8,0.5,23.3,0.6,35.1,0.7
					c12.2,0.1,24.4,0.6,36.6,0.8c23.7,0.5,47.2,1.6,70.8,2.4c47.2,1.6,95,3,142.5,3.2c22.9,0.1,45.8,0.1,68.6-0.1
					c1.8,0,1.8-0.8,0-0.8c-45.8-0.7-91.6-1.8-137.2-3.2c-23.2-0.7-46.4-1.5-69.6-2.4c-22.6-0.9-45.4-1.8-67.5-3.4
					c-10.1-0.8-20.2-1.6-30.3-2.4c-11.5-0.9-22.4-2.4-33.8-3.4c-21.5-1.9-43.4-3.2-65.2-4.7c-34.4-2.4-75.7-5.2-93-15.4
					c-6.7-3.9-7.1-8.3-0.2-12c7.5-4,20.6-6.9,33.9-9.3c16.9-3,33.8-5.8,51.8-8.2c19-2.5,38.6-4.6,58.5-6.4
					c80-7.4,164.7-9.2,248-10.2c46.5-0.6,93-0.9,139.5-0.9c47.3,0,94.3,0.4,141.5,1.2c22.6,0.4,45.2,1.2,67.8,1.4
					c23.2,0.2,46.4,0.4,69.5,0.6c41.9,0.5,83.9,1.1,125.3,3.1c40,1.9,80.2,4.9,116.8,10c6.2,0.9,14.8,1.9,18.3,3.6
					c3.4,1.6,1.4,3.3-1.4,5c-7.5,4.5-21.3,8.4-33.4,11.8c-50.4,14.1-116.2,22-182.7,27.3c-35.1,2.8-70.9,4.9-106.9,6.5
					c-22.2,1-44.7,1.6-66.7,2.9c-21.6,1.3-43.3,2.3-65.1,3.2c-23,1-46.1,2-69.2,2.8c-23,0.8-46.3,1.1-69.4,1.4
					c-46.3,0.6-92.6,0.8-138.9,0.6c-22.2-0.1-44.3-0.3-66.5-0.6C-255.2-39.4-255.2-39.1-254.6-39.1L-254.6-39.1z"/>
			</g>
			<g id="XMLID_90_">
				<path id="XMLID_92_" fill="#CBA282" d="M-86.3-53c51.5,0.1,103-0.7,154.2-2.3c25.4-0.8,50.7-1.8,76-3
					c25.4-1.2,50.8-2.2,76.2-3.4c25.7-1.2,51.9-2.1,76.9-4.3c24.9-2.2,49.6-4.6,74-7.2c24.5-2.6,48.8-5.5,72.8-8.5
					c10.1-1.3,20.1-3,25.3-6c6.2-3.5,3.2-7.9-6.9-10.5c-8.6-2.2-19.5-3.1-30.3-3.8c-12.3-0.8-24.7-1.6-37.1-2.4
					c-25.7-1.5-51.9-2.1-78-2.5c-25.5-0.4-51.1-0.8-76.6-1c-25.2-0.2-50.4-1-75.6-1.4c-50.9-0.7-102.1-0.7-153.1-0.3
					c-25.7,0.2-51.4,0.8-77.1,0.9c-25.6,0.1-51.2,0.4-76.8,0.8c-12.5,0.2-25,0.5-37.6,0.6c-13.1,0-25.8,0.6-38.8,1.2
					c-25.5,1.1-51,2.3-76.3,3.8c-50,3-99.3,7.1-147.8,11.7c-12,1.1-24,2.3-36,3.6c-14.4,1.5-16.5,6.7-4.1,9.2
					c26.6,5.4,55.8,11,86.8,13.9c15.3,1.4,30.8,2.7,46.2,4.1c15.5,1.4,31.2,2.6,47.1,3.6c62.4,4,125.8,6.4,189.8,5.5
					c35.8-0.5,72-1.7,106.4-4.8c1.7-0.1,0.9-0.8-0.7-0.7c-31.9,1.5-63.7,3-95.9,3.5c-30.8,0.5-61.7,0.2-92.4-0.7
					c-31.4-1-64.2-2.8-94.1-5.8c-29.1-2.9-58.1-6.1-84.4-10.9c-30.4-5.4-62-10.3-91.4-16.3c-1.4,3.1-2.7,6.1-4.1,9.2
					c46.1-4.7,92.9-8.8,140.2-12.3c23.6-1.7,47.4-3.4,71.2-5c11.9-0.8,23.7-1.7,35.6-2.4c11.9-0.7,24.1-1.2,35.9-2
					c11.8-0.8,23.2-2,35.2-2.7c11.9-0.7,23.7-1.4,35.6-2c24.2-1.3,48.9-2.7,73.5-3.2c48.7-1,97.5-1.5,146.3-1
					c49.4,0.5,99.6,1.2,148.3,3.9c47.7,2.7,94.1,7,141.6,9.8c11.9,0.7,23.9,1.4,35.8,2.3c4,0.3,6.8,0.5,9.1,0.9
					c0.4,0.1,0.9,0.2,1,0.2c-0.4-0.4-1.2-0.8-1.4-1.2c0,0,0.7-0.6,0.8-0.6c0.1,0-1.3,0.3-1.7,0.4c-1.9,0.4-4.1,0.7-6.3,1
					c-5,0.7-10.2,1.3-15.3,1.9c-11.4,1.4-22.8,2.7-34.3,4c-23,2.6-46.2,5-69.7,7.3c-23.5,2.2-47.7,4.3-70.5,7.1
					c-45.5,5.6-93.5,8.8-141.8,11.4C50-56.7,0.4-54.9-49.3-53.9c-12.3,0.3-24.6,0.5-36.9,0.6C-86.8-53.2-86.8-53-86.3-53L-86.3-53z"
					/>
			</g>
			<g id="XMLID_88_">
				<path id="XMLID_89_" fill="#CBA282" d="M-73.1-61.7c27.1,0.6,54.3,0.6,81.4-0.1c26.4-0.7,52.1-2.3,78.2-3.4
					c6.4-0.3,12.8-0.4,19.1-0.7c6.7-0.3,13.2-1,19.8-1.4c14.2-0.8,26.8-2.3,40-4c25-3.2,48.6-7.1,71.1-11.7c6.4-1.3,10-3.4,7.9-5.7
					c-7.6-8.4-41.2-9-65.5-8.8c-30,0.2-59.9,0.2-89.9,0.5C59.6-96.8,30-96.6,0.4-96.2c-29.5,0.4-59,1.1-88.5,1.7
					c-29.8,0.6-59.5,0.8-89.1,1.9c-15.2,0.6-30.3,1.1-45.4,1.8c-14.4,0.7-28.8,1.2-42.2,2.9c-10.8,1.4-21.4,3.7-26.2,6.9
					c-6,4-1.1,8.4,11.4,10.7c10.9,2.1,25.3,2.5,37.7,3.1c14.5,0.7,28.9,1.5,43.4,2.3c31.5,1.6,63.7,2.7,95.7,3.2
					c32.6,0.4,64.3-0.1,96.4-1.8c1.6-0.1,1.2-0.9-0.4-0.8c-25.9,0.4-52.2,0.4-78.1,0.1c-26.4-0.3-53.2-0.9-79-2.5
					c-25.2-1.6-49.8-3.5-73.2-6.7c-5.5-0.7-11-1.5-16.4-2.3c-1.8-0.3-3.5-0.7-5.4-0.9c-0.6-0.1-2.5-0.3-1.4-0.2
					c0.9,0.1-0.9-0.2,0-0.4c-0.1,0-0.6,0.6-0.7,0.6c1.7-0.6-0.4-0.1,1.6-0.7c1.9-0.5,6.2-1.3,8.9-1.6c5.2-0.6,10.8-0.9,16.1-1.4
					c6.2-0.6,12.5-1.2,18.8-1.8c13-1.2,26-2.3,39.1-3.4c12.6-1,25.6-1.7,38-2.9c12.6-1.2,25-2,38-2.7c27-1.4,53.8-2.4,81.2-2.8
					C7.3-94,34.4-94.4,61-93.9c30,0.6,60.3,1.5,89.8,3.3c14.1,0.9,27.9,2.1,42,2.8c5.1,0.3,10.4,0.5,15.2,1.1c0.2,0,2.9,0.5,3,0.5
					c-1.2-0.2,0.8,0.2,0.8,0.3c-0.7-0.3-1.4-0.9-0.6,0c2.6-1.9,5.3-3.8,7.9-5.7c-21.8,4.3-44.7,8.2-68.2,11.6
					c-11.4,1.7-22.8,3.2-33.9,5c-5.9,1-12,1.7-18.1,2.6c-5.6,0.8-10.9,1.8-16.5,2.5C59-66.8,32.7-65.2,7.3-64
					c-26.6,1.3-53.4,1.9-80.4,2C-73.7-62-73.7-61.7-73.1-61.7L-73.1-61.7z"/>
			</g>
			<g id="XMLID_86_">
				<path id="XMLID_87_" fill="#CBA282" d="M375.1-23.8c40.8,2.6,83.2,2.1,123.7-0.8c21.5-1.5,42.5-3.6,63-5.9
					c20.7-2.4,41.8-4.7,61.6-7.6c39.9-5.9,78.9-12.4,118.9-18.3c40-5.9,81.2-11,123.6-15.2C950.8-80,1039.9-85,1128.8-88
					c91.2-3.1,182.8-3.4,274.5-3.2c91.9,0.2,183.9,0.6,275.7,2.3c11.1,0.2,22.2,0.4,33.3,0.6c2.1,0,2.7-1,0.5-1.1
					c-44.9-1.9-89.9-3.6-134.9-5.4c-45.9-1.8-92-3.6-138.3-4.4c-91.3-1.7-182.8-1.4-273.9,1c-90.5,2.4-180.6,7-267.2,15.1
					c-43.1,4-85.5,8.6-126.9,14c-41.4,5.4-80.6,12-120.1,18.5C575.6-38.2,496.9-24,407-23.8c-10.6,0-21.1-0.2-31.6-0.5
					C374.3-24.4,374.1-23.9,375.1-23.8L375.1-23.8z"/>
			</g>
			<g id="XMLID_83_">
				<path id="XMLID_84_" fill="#CBA282" d="M285.9-32.1c47.8,3,96.4,0.6,142.7-3.4c12-1,23.8-2.2,35.8-3.1
					c11.8-0.9,23.1-2.2,34.8-3.3c23.1-2,45.4-4.7,67.7-7.5c90-11.1,179.6-22.6,270.1-33.5c89.6-10.7,180.8-20.6,275-27.3
					c99.3-7.1,200.9-10,302.9-10.4c51.7-0.2,103.4,0.2,155,0.8c52.2,0.7,104.2,1.6,156.4,0.7c12.9-0.2,25.8-0.3,38.6-0.5
					c5.4-0.1,7.1-2.5,1.3-2.9c-25-1.4-49.9-3-75-4.2c-26.4-1.2-53.1-2-79.7-2.5c-51.6-1.1-103.3-1.7-155.1-1.8
					c-103.6-0.2-207.6,1.8-309.4,7.9c-94.8,5.7-187.3,14.6-277,25.2c-90.8,10.7-180.2,22.5-268.2,35.1c-21.8,3.1-44.2,5.8-66.4,8.7
					c-11,1.4-22.1,2.9-32.9,4.4c-5.2,0.7-10,1.7-15.2,2.4c-5.7,0.8-11.5,1.4-17.1,2.3c-44.4,6.9-94.3,12.2-145,12.8
					c-13,0.2-26,0-39-0.6C285.3-32.6,284.8-32.2,285.9-32.1L285.9-32.1z"/>
			</g>
			<g id="XMLID_81_">
				<path id="XMLID_82_" fill="#CBA282" d="M-142.4-137c129.7-2.9,260.5-5.8,390.6-3.9c63.7,0.9,126.4,3.2,188.3,7.9
					c60,4.5,118.5,10.6,177.8,15.7c58.5,5.1,118.4,9.4,179.6,10.1c64.2,0.8,124.8-3.6,185.4-9.3c122.3-11.6,246.4-21,373.7-26.4
					c128.1-5.5,258.1-7.4,387.4-5.7c15.8,0.2,31.6,0.5,47.3,0.8c2.2,0,2.2-1,0-1c-128.4-3.7-257.9-4-386.4-0.7
					c-128,3.2-256,9.6-379.6,19.9c-60.9,5.1-121.5,11.7-185.2,12.7c-60.3,1-120-2.3-178-6.9c-59.8-4.7-118.1-10.9-177.6-15.9
					c-61.7-5.2-124.7-8.6-188.7-10.1c-130.4-3-259.9,2.9-387.8,9.9c-15.7,0.9-31.3,1.7-47,2.6C-143.3-137.4-143.1-137-142.4-137
					L-142.4-137z"/>
			</g>
			<g id="XMLID_78_">
				<path id="XMLID_80_" fill="#CBA282" d="M-107.8-137.5c-85.5,2.5-171,5.3-256.6,7.3c-36.3,0.9-72.7,1.5-108.9,2.8
					c-16.7,0.6-33.7,0.9-50.3,1.8c-16.1,0.9-32.3,1.9-48.1,3.2c-31.4,2.5-61.9,6.3-88.9,11.7c-13.6,2.7-26.7,5.8-38.3,9.2
					c-12.3,3.7-22.6,7.8-33.3,11.9c-10.7,4.1-22.4,8-37.6,10.6c-15.4,2.7-32.5,4.2-49.7,5.6c-40.1,3.2-80.7,5.9-121.3,8.4
					c-92.7,5.7-186.1,10.2-280.6,12.6c-3.7,0.1-3.8,1.7,0,1.7c84.4,0.5,168.4-1,252.2-4.1c42-1.5,83.9-4,125.2-6.8
					C-806-64-765.8-66.5-735-74c14.4-3.5,25.5-8,36.8-12.4c9.9-3.8,20.5-7.4,32.6-10.7c23-6.1,50.9-10.4,79.3-14
					c61.1-7.6,126.8-10.8,191.9-13.9c95.3-4.6,191.2-8.2,286.8-12C-106.7-137.1-106.9-137.5-107.8-137.5L-107.8-137.5z"/>
			</g>
			<g id="XMLID_76_">
				<path id="XMLID_77_" fill="#CBA282" d="M-1216.2-6.8c51.6,1.3,103.6,2.4,155.3,2.7c51.7,0.3,103.5-0.1,155.1-1.1
					c52.2-0.9,104.4-3,156.2-5.1c51.3-2.1,102.4-4.5,153.3-7.4c12.7-0.7,25.4-1.5,38.1-2.2c10.6-0.6,21.7-1.1,31.8-2.3
					c10.6-1.3,20.7-3.4,24-6.8c3.6-3.7-2.2-7-9.6-9.9c-25.7-10-64.8-16.5-106.2-19.3c-22.8-1.5-46.1-1.9-69.5-1.9
					c-13.3,0-27,0.5-40.1,1.1c-12.8,0.6-25.7,1.1-38.1,2.1c-12.4,1-25.5,1.5-38.1,2.2c-12.8,0.8-25.5,1.5-38.3,2.2
					c-25.7,1.3-51.4,2.5-77.2,3.6c-104,4.3-210,5.5-314.9,5.3c-13.1,0-26.2-0.1-39.3-0.2c-1,0-1,0.4,0,0.4c99.7,1.3,199.7,1,299.3-1
					c50.2-1,100.2-2,150.3-3.3c49.2-1.3,98.4-3,147.9-2.6c38.4,0.3,77.9,3.1,109.9,9.7c7.1,1.5,13.7,3.3,19.6,5.2
					c2.5,0.8,4.9,1.6,7,2.5c0.4,0.2,3.3,1.7,3.7,1.7c-2.1,0,1.3-1.5,1.3-1.7c0,0.3-3.3,0.7-4.6,0.8c-5,0.5-10.4,0.8-15.6,1.1
					c-11.7,0.7-23.5,1.4-35.2,2.1c-96.8,5.7-194.5,9.8-292.8,12.5c-98.6,2.7-197.1,5.8-296,7.3c-12.5,0.2-24.9,0.4-37.4,0.5
					C-1218.8-7.9-1218.7-6.8-1216.2-6.8L-1216.2-6.8z"/>
			</g>
			<g id="XMLID_73_">
				<path id="XMLID_75_" fill="#CBA282" d="M-1158.2-92.4c92.6,5,189.7,3.8,279.3-5c45.6-4.5,88.7-10.5,129.8-17.8
					c43.2-7.7,85.2-16.2,132.5-21.7c45.8-5.3,94.3-8.3,142.9-10.4c25.3-1.1,50.7-1.7,76-2.6c25.8-0.9,51.1-2.4,76.6-3.8
					c54.1-2.9,110.5-4,165.3-5.4c54.1-1.4,108.2-2.7,162.3-4c55.1-1.4,110.1-2.6,165.3-3.5c54.6-0.8,108.9-2.1,162.8,1.2
					c49.9,3.1,97.1,9.2,146.2,13.2c45,3.6,90.8,6.1,137.1,7.8c189.1,6.8,380.7-3.1,565.9-13.7c188.8-10.8,382.1-21.8,575.2-20.9
					c24.1,0.1,48.2,0.5,72.2,1c2.3,0.1,2.2-1,0-1.1c-191.1-7-381.9,1.2-570.3,10.6c-188.2,9.4-380.9,19.2-572.5,15.9
					c-46.6-0.8-93-2.4-138.8-5c-48-2.8-93.4-7.6-140.4-11.3c-24.3-1.9-48.8-3.6-73.8-4.5c-26.8-1-54.5-0.6-81.4-0.1
					c-54.2,1-107.9,3.5-162,4.8c-108.1,2.5-216.3,5.7-324.6,7.5c-27.5,0.5-55.1,1.2-82.6,1.4c-26.7,0.2-53.2-0.4-79.9,0
					c-48.9,0.9-98.3,2.8-146.1,5.8c-47.9,3-94.3,7.7-137.5,14.5c-44.3,7-85.2,15.6-129.7,22.4c-85.8,13.2-180.6,20.7-276.8,23.4
					c-24.2,0.7-48.5,0.8-72.8,0.7C-1159-93-1159.2-92.5-1158.2-92.4L-1158.2-92.4z"/>
			</g>
			<g id="XMLID_70_">
				<path id="XMLID_71_" fill="#CBA282" d="M1534.6,249c-83.3-1-172.6-1.9-247.7,10.5c-62.1,10.3-109.3,27.3-155.1,42.9
					c-23.4,8-47.8,15.9-75,22.9c-31.4,8-67.5,13.5-107.1,17.3c-43,4.1-88.1,5.9-132.8,7.5c-48.3,1.7-96.8,3-145.3,4.1
					c-97.5,2.3-196.5,2-294.1,0.3c-46.6-0.8-94.4-2-138.4-6.9c-36.1-4-65.1-10.9-95.6-17.6C85.9,317.2,32.1,302.1-33.8,293
					c-81.8-11.3-176.6-10.8-265-10.9c-96.7-0.2-193.5-0.3-290.2,0.8c-48.6,0.6-97.3,1.4-145.7,2.9c-46.7,1.5-95.6,2.6-141.1,6.1
					c-22.3,1.7-43.5,3.7-64.7,6.3c-5,0.6-2.3,2.9,2.7,2.9c47.6-0.3,94.2-2.3,141.4-3.9c48.2-1.6,96.7-2.7,145.2-3.6
					c95.8-1.7,191.8-1.9,287.7-1.8c48.6,0,97.3-0.1,145.9,0.5c45.4,0.5,91.7,1.7,135.3,5.6c69.9,6.3,125.4,20.1,182.6,32.8
					c62.5,13.9,135.2,23.8,213.7,26.1c47.7,1.4,96.1,1.6,143.9,1.7c48.6,0.2,97.3,0,145.9-0.6c93.5-1.1,187.4-2.4,279.8-7
					c80.1-4,153.5-12.4,215.7-27.9c54.8-13.7,97.9-30.8,151.4-44.9c26.3-6.9,56.1-13.1,88.5-17.4c40.9-5.4,85.2-7.8,129.7-9
					c21.9-0.6,43.8-1,65.8-1.3C1537.9,250.4,1537.9,249,1534.6,249L1534.6,249z"/>
			</g>
			<g id="XMLID_68_">
				<path id="XMLID_69_" fill="#CBA282" d="M1566.4,273.8c-78.9-5.8-167.2,1.4-238.3,11.7c-75.6,11-141.4,26.4-209.5,40.8
					c-33,7-65.1,14.6-101.4,20.1c-39,6-80.1,10.3-123.2,12.9c-45.3,2.7-91.5,3.8-137.5,4.8c-45.3,1-90.6,2.1-135.9,3.3
					c-91.1,2.4-184,6-275.6,5.1c-81.2-0.8-156.2-11.9-225.8-23.2C47.4,337.5-25.1,326.5-105,320.1c-85-6.8-172.6-9.7-259.7-13.2
					c-43.3-1.7-86.4-3.9-130-4.8c-44.8-0.9-89.9-0.8-134.7-0.2c-45.6,0.6-91,1.9-136.3,3.4c-43.4,1.4-88.3,2.5-130.9,5.4
					c-21.1,1.5-42.3,2.9-63.5,4.3c-6,0.4-4.5,3.1,1.4,3.1c44.5,0.1,88-0.2,132.2-1.5c44.5-1.4,88.9-2.8,133.5-3.8
					c88.8-2,178-2.7,266.4,1.3c86.5,3.8,173.9,6.4,259.7,11.7c82.8,5.1,160.3,13.6,237.2,23.8c36.1,4.8,72.8,9.1,109.5,13.5
					c36.8,4.3,75,8.2,114,10.5c39,2.3,78.1,1.9,117.6,1.3c46.5-0.6,93-1.8,139.3-3.1c45.7-1.3,91.4-2.7,137.2-3.6
					c45.4-0.9,91-1.1,136.3-2.3c43.1-1.1,86.1-3,127.6-6.7c38.9-3.5,76.1-8.6,112-14.2c73-11.3,136.6-26.6,203.9-40.4
					c69.7-14.3,149-27.5,235.3-29.7c20.8-0.5,42.1-0.5,62.9,0C1568.1,274.9,1568.5,273.9,1566.4,273.8L1566.4,273.8z"/>
			</g>
			<g id="XMLID_64_">
				<path id="XMLID_66_" fill="#CBA282" d="M1548.3,296.1c-80.2-4.3-164,4.1-231,16.9c-72.1,13.7-135.2,31.4-210.9,43.5
					c-74.8,12-158,18.2-241.6,22.2c-91,4.4-182.3,6.8-274.6,7c-94.2,0.2-189.6-0.6-282.9-4.7c-46-2-91.5-4.9-136.1-8.9
					c-44.4-4-86.7-9.4-130.1-14.2c-167.6-18.4-347.9-26.8-526.1-29.8c-179.6-3-358.7,0.7-535.5,10.2c-21.6,1.2-43.1,2.4-64.6,3.7
					c-3,0.2-2.4,1.7,0.7,1.6c177.5-5.1,357.5-7.8,535.8-6.4c179.3,1.4,355,9.5,527.5,23.8c87.7,7.3,174.3,16.4,264.2,21.3
					c91,4.9,184.7,6.4,277.1,7c92.6,0.6,186-0.3,278.4-2c83.7-1.6,168-5.6,246.9-14.2c79.8-8.7,146.9-23.1,213.1-38.4
					c66.6-15.5,139.6-31.8,224.7-36.8c21.4-1.3,43-1.6,64.7-1.2C1549,296.6,1549.2,296.2,1548.3,296.1L1548.3,296.1z"/>
			</g>
			<g id="XMLID_62_">
				<path id="XMLID_63_" fill="#CBA282" d="M1553.7,328c-78.6-5-159.2,1.7-229.3,12.2c-36.4,5.4-70.8,11.9-104.6,18.6
					c-33.5,6.6-65.6,13.9-99.3,20.4c-34.3,6.6-70.6,12.4-109.2,16.5c-41,4.4-85.5,6.2-128.7,7.4c-86.2,2.4-173.6,2.2-260.1,2.3
					c-174.4,0.2-352.8-1.6-519.9-17.8c-83.3-8-163.5-18.6-249.5-24c-86.1-5.4-174.5-6.8-262.4-7.2c-91-0.3-182.1-0.1-273.1,0.3
					c-91.5,0.5-184.5,0-275.3,3.5c-21.7,0.8-43.3,1.7-64.9,2.9c-5.2,0.3-3.4,2.4,1.2,2.5c45.6,1.3,91.8,2.3,137.6,2.1
					c45.9-0.2,91.8-0.6,137.7-0.8c90.9-0.4,181.9-0.6,272.8-0.6c88.2,0,177.2,0.1,264.7,3.9c87,3.8,169.2,12.5,253,20
					c165.1,14.7,340.7,18.2,512.4,18.3c87.1,0.1,174.3-0.6,261.4-1.4c82.7-0.7,165.8-3.4,243.3-12.4c74.5-8.7,141.5-21.4,208.1-34.3
					c66.7-12.9,140.6-25.6,220.5-29.6c20.7-1,41.9-1.4,62.9-1.2C1555.8,329.5,1556.5,328.2,1553.7,328L1553.7,328z"/>
			</g>
			<g id="XMLID_60_">
				<path id="XMLID_61_" fill="#CBA282" d="M-879.4,461.9c88.1,1.6,176.2,3,264.5,3.2c87.7,0.2,175.6-2.5,261.5-7.6
					c42.4-2.6,84.4-5.8,125.4-9.9c41-4.1,82.3-8.8,120.5-14.9c17.3-2.7,34.6-6.8,39-12.8c4.6-6.1-4-12.6-19.5-16.8
					c-15.9-4.3-37.1-6.2-58.1-7c-22.7-0.9-45.5-1.5-68.2-2.3c-89.4-3-178.9-5.6-268.8-7.1c-89.8-1.5-179.9-1.7-269.7,0.1
					c-89.2,1.8-178.2,5.4-263.9,13c-42,3.7-83.4,8.1-123.6,13.3c-17.6,2.3-35.4,4.5-50.7,8c-11.9,2.7-23.6,6.2-26.4,10.7
					c-6.8,11,39.1,17.2,66.7,20.8c36.2,4.8,75,7.5,114,9.4c81.5,3.9,164.8,4,247.1,4.9c19.7,0.2,41.1,0.3,60.3,1.6
					c4.3,0.3,6.2-1.7,1.8-2c-9.4-0.7-18.6-1.7-28-2.4c-10.2-0.8-20.4-1.5-30.8-2.1c-19.4-1.2-38.9-2-58.6-2.3
					c-39.5-0.5-79.1-0.6-118.6-0.7c-38.9-0.1-78.1-0.4-116.3-2.6c-36.6-2.1-76.2-5.4-107-11.8c-14.9-3.1-28.4-7.9-21.9-13.6
					c5.5-4.8,21.2-7.7,35.9-9.8c17.7-2.5,37.2-4.1,55.9-5.8c20.2-1.8,40.5-3.5,60.9-5c41.4-3.1,83.3-5.3,125.3-7.5
					c41.4-2.2,83.1-3.9,124.9-5.1c170.5-4.8,342.6-2,512.7,3c42.6,1.2,85.1,2.6,127.6,4.2c16.6,0.6,36.3,1.3,49.9,4.3
					c5.6,1.3,10.5,3.1,12.6,4.9c2.4,2,2.2,3.3-2,5.2c-8.6,3.8-29,5.9-43.2,7.9c-18.1,2.5-36.6,4.8-55.3,6.9
					c-38.4,4.3-77.9,7.8-117.8,10.7c-79.9,5.7-162.1,8.8-244.1,10.7c-42,1-83.7,2.4-125.8,3.1c-41.9,0.7-83.9,1.3-125.9,1.7
					c-20.9,0.2-41.7,0.4-62.6,0.6C-881.2,461.1-881.1,461.8-879.4,461.9L-879.4,461.9z"/>
			</g>
			<g id="XMLID_57_">
				<path id="XMLID_58_" fill="#CBA282" d="M-976.9,448.5c51.4,0.9,102.7,1.8,154.1,2.5c51.8,0.6,103.8,1.4,155.6,1.1
					c51.8-0.3,103.1-1.2,154.5-3.2c50.4-2,100.5-4.8,149.7-8.7c27.1-2.1,55.1-4.3,80.9-7.5c23-2.9,44-8.5,39.1-16.4
					c-1.4-2.3-9.3-3.5-16.3-3.6c-71.2-1.7-142.7-3.2-214.2-3.3c-17.7,0-35.4-0.4-53.2-0.5c-17.7-0.1-35.5,0-53.2-0.3
					c-35.5-0.7-70.7-0.7-106.3-0.5c-71.7,0.4-143.5,2.9-213.9,6.9c-34.5,1.9-70,3.8-103.6,6.8c-25.6,2.3-59.5,8.9-51.9,18.1
					c4.6,5.6,22.4,8.1,39.6,9.7c19.5,1.8,40.1,3.5,60.8,3.1c19.1-0.4,38.3,0.1,57.5-0.2c19.6-0.3,39.1-0.7,58.5-1.6
					c2.7-0.1,2-1.4-0.6-1.4c-33.3,0.1-66.6-0.7-98.9-3.2c-7.6-0.6-14.4-1.8-21.8-2.5c-8.3-0.8-16.6-1.5-25.1-2.2
					c-7.1-0.6-14.2-1.2-21.2-1.8c-4.9-0.5-10.9-0.9-14.3-1.9c-1-0.3-1.8-0.6-0.6-0.2c0.2,0-2.5-0.9-0.2-0.1
					c-0.2-0.1,0.3-1.1-0.1-0.1c0.3-0.8,0.5-0.4-0.1-0.2c2.6-1.2,4.5-2,8.4-2.8c10.6-2.3,21.2-3.1,34-4c32.6-2.4,65.3-4.6,98.3-6.5
					c32.5-1.8,65.2-3.4,97.7-5c32.4-1.6,64.9-2.7,97.5-3.9c33.4-1.3,67.1-2.1,100.7-3c32.9-0.9,66.4-0.5,99.4-0.1
					c37.3,0.4,75.2,2.1,112.1,3.7c37.2,1.6,73.8,4,110.2,6.8c-4.1-1.6-8.3-3.2-12.4-4.8c0,0.9,0.5,0-0.1,0.8c-0.2,0.3-0.5,0.7-0.9,1
					c0.2-0.1,0.8-0.5-0.1,0c-1.2,0.7-3.6,1.4-6.3,2c-6.4,1.4-14.3,2.4-21.9,3.1c-22.8,2.3-46,4.4-69.3,6.2
					c-47,3.7-94.8,6.4-142.9,8.4c-48.2,2-96.9,3.6-145.4,4.9c-49.1,1.2-98.1,2.4-147.3,3c-55.5,0.6-111,0.9-166.5,1.2
					C-977.8,448.1-977.7,448.5-976.9,448.5L-976.9,448.5z"/>
			</g>
			<g id="XMLID_54_">
				<path id="XMLID_56_" fill="#CBA282" d="M-710.9,478.6c173.7,7.8,345.8-3.1,511.7-17.7c85.4-7.5,170.5-15.4,257.3-21.5
					c91.1-6.4,183.1-10.1,276.8-10.7c98.1-0.7,196,1.3,294,2.5c47.8,0.6,95.6,1.3,143.4,0.7c44.9-0.5,90-1.3,134.7-2.7
					c88.4-2.7,176.8-7.4,259.8-17c86.2-10,162.5-25.9,249.2-35.6c87.8-9.9,181-15.4,273.8-19.5c48.7-2.2,97.8-3.7,146.9-4.5
					c49.1-0.8,97.6-0.1,146.6,0.5c23.8,0.3,47.6,0.8,71.3,1.4c3.2,0.1,3.7-1.3,0.7-1.6c-92.1-7.8-190.9-6.9-285.4-3.9
					c-93.3,3-187.3,8.1-277.3,15.9c-43.2,3.7-85.6,8.3-126.3,13.9c-42.3,5.9-82.5,13-124.2,19.3c-82.8,12.4-171.4,20-263.5,23.6
					c-89.4,3.5-179,1.8-268.6,0.8c-98.8-1-197.5-3.2-296.4-3.7c-95.9-0.4-191.5,1.1-286,6.2c-87.5,4.8-173.2,12.1-258.3,19.6
					c-85,7.5-169.9,15.2-255.7,21.8c-84.8,6.5-171.6,11.6-259.5,12.2c-21.7,0.1-43.3,0-64.9-0.4C-711.8,478-712,478.6-710.9,478.6
					L-710.9,478.6z"/>
			</g>
			<g id="XMLID_50_">
				<path id="XMLID_52_" fill="#CBA282" d="M-799.2,498.8c169.6,3.6,341.1,6.5,509.2-3.3c160.1-9.4,309.2-30.5,469.7-39.4
					c169.3-9.4,344-6.3,515.4-7.4c85.7-0.5,171.2-1.8,256.3-4.8c83.5-3,165-8.1,245.7-15c156.3-13.4,321.4-30.2,486-19.7
					c19,1.2,38,2.8,56.6,4.4c1.9,0.2,3.1-0.7,1.3-0.9c-68.5-10.3-149.9-12.2-225.6-10.5c-82.5,1.9-162.8,8.1-242.2,14.6
					c-81.8,6.7-163.8,12.6-247.9,16.5c-85.8,3.9-172.5,5.7-259.2,6.8c-171.5,2.2-344.3-1-515.1,4.8C85.5,450.5-67.5,470-226.1,483.6
					c-81.8,7-164.2,12.1-249.3,14.1c-86.4,2-173.4,1.7-260,1.2c-21.3-0.1-42.5-0.3-63.7-0.4C-799.9,498.5-799.9,498.8-799.2,498.8
					L-799.2,498.8z"/>
			</g>
			<g id="XMLID_48_">
				<path id="XMLID_49_" fill="#CBA282" d="M1650.8,426.9c-82.7-0.2-166.5,1.4-248.5,4.7c-42,1.7-83.9,3.9-124.7,7.3
					c-40.4,3.3-79.8,7.4-119.4,11.5c-80.9,8.4-161.6,15.3-247,18.3c-82.6,2.9-166.1,3.3-249.2,3.2c-83.7-0.1-167.4-0.6-251,0.8
					c-83.6,1.4-165.7,4.9-247.4,10.1c-83.5,5.4-166.4,11.5-250.2,16.6c-85.4,5.1-172.4,7.7-259.5,8.3c-174.4,1.4-348-4.2-520.8-10.5
					c-21.8-0.8-43.6-1.6-65.4-2.3c-1.7-0.1-2.1,0.8-0.4,0.9c171.4,8.3,344.5,15.5,518.3,16.7c85.8,0.6,171.9-0.6,257-4
					c85-3.4,168.3-9.2,251.8-14.8c83-5.6,166.2-11,251.1-13.5c84-2.5,168.6-2.3,252.9-2.3c165.9,0,332.9,0.6,492.9-14.3
					c81.4-7.6,159.8-17.6,243.2-23.3c83.1-5.7,167.6-8.6,252.5-10.8c21.3-0.5,42.4-1.1,63.6-1.9
					C1652.3,427.5,1652.4,426.9,1650.8,426.9L1650.8,426.9z"/>
			</g>
		</g>
	</g>
</g>
</svg>
